<svg width="8" height="8" viewBox="0 0 8 8" fill="none" xmlns="http://www.w3.org/2000/svg">
<path fill-rule="evenodd" clip-rule="evenodd" d="M4 1C5.65685 1 7 2.34315 7 4V5.5C7 6.32843 6.32843 7 5.5 7H4.5C4.22386 7 4 6.77614 4 6.5C4 6.22386 4.22386 6 4.5 6C4.77614 6 5 5.77614 5 5.5C5 5.22386 4.77614 5 4.5 5H4C3.44772 5 3 5.44772 3 6C3 6.55228 2.55228 7 2 7H0.5C0.223858 7 0 6.77614 0 6.5C0 6.22386 0.223858 6 0.5 6C0.776142 6 1 5.77614 1 5.5V3.5C1 2.11929 2.11929 1 3.5 1H4ZM3 3C3 3.55228 3.44772 4 4 4C4.55228 4 5 3.55228 5 3C5 2.44772 4.55228 2 4 2C3.44772 2 3 2.44772 3 3Z" fill="FGCOLOR"/>
</svg>
