<svg width="8" height="8" viewBox="0 0 8 8" fill="none" xmlns="http://www.w3.org/2000/svg">
<path fill-rule="evenodd" clip-rule="evenodd" d="M7 6C7 6.55228 6.55228 7 6 7H0.5C0.223858 7 0 6.77614 0 6.5C0 6.22386 0.223858 6 0.5 6C0.776142 6 1 5.77614 1 5.5V3C1 1.89543 1.89543 1 3 1H5.5C6.32843 1 7 1.67157 7 2.5V3.5C7 3.77614 6.77614 4 6.5 4C6.22386 4 6 4.22386 6 4.5C6 4.77614 6.22386 5 6.5 5C6.77614 5 7 5.22386 7 5.5V6ZM3.5 5C3.22386 5 3 5.22386 3 5.5C3 5.77614 3.22386 6 3.5 6H4.5C4.77614 6 5 5.77614 5 5.5C5 5.22386 4.77614 5 4.5 5H3.5ZM3 3C3 3.55228 3.44772 4 4 4C4.55228 4 5 3.55228 5 3C5 2.44772 4.55228 2 4 2C3.44772 2 3 2.44772 3 3Z" fill="FGCOLOR"/>
</svg>
