<svg width="8" height="8" viewBox="0 0 8 8" fill="none" xmlns="http://www.w3.org/2000/svg">
<path fill-rule="evenodd" clip-rule="evenodd" d="M4 0.5C4 0.776142 3.77614 1 3.5 1C3.22386 1 3 1.22386 3 1.5C3 1.77614 3.22386 2 3.5 2H4C4.55228 2 5 1.55228 5 1C5 0.447715 5.44772 0 6 0H7.5C7.77614 0 8 0.223858 8 0.5C8 0.776142 7.77614 1 7.5 1C7.22386 1 7 1.22386 7 1.5C7 1.77614 7.22386 2 7.5 2C7.77614 2 8 2.22386 8 2.5C8 2.77614 7.77614 3 7.5 3C7.22386 3 7 3.22386 7 3.5C7 3.77614 7.22386 4 7.5 4C7.77614 4 8 4.22386 8 4.5C8 4.77614 7.77614 5 7.5 5C7.22386 5 7 5.22386 7 5.5V6C7 6.55228 6.55228 7 6 7H4.5C4.22386 7 4 6.77614 4 6.5C4 6.22386 4.22386 6 4.5 6C4.77614 6 5 5.77614 5 5.5C5 5.22386 4.77614 5 4.5 5H4C3.44772 5 3 5.44772 3 6C3 6.55228 2.55228 7 2 7H0.5C0.223858 7 0 6.77614 0 6.5C0 6.22386 0.223858 6 0.5 6C0.776142 6 1 5.77614 1 5.5C1 5.22386 0.776142 5 0.5 5C0.223858 5 0 4.77614 0 4.5C0 4.22386 0.223858 4 0.5 4C0.776142 4 1 3.77614 1 3.5C1 3.22386 0.776142 3 0.5 3C0.223858 3 0 2.77614 0 2.5C0 2.22386 0.223858 2 0.5 2C0.776142 2 1 1.77614 1 1.5V1C1 0.447715 1.44772 0 2 0H3.5C3.77614 0 4 0.223858 4 0.5ZM3.5 3C3.22386 3 3 3.22386 3 3.5C3 3.77614 3.22386 4 3.5 4H4.5C4.77614 4 5 3.77614 5 3.5C5 3.22386 4.77614 3 4.5 3H3.5Z" fill="FGCOLOR"/>
</svg>
