<svg width="8" height="8" viewBox="0 0 8 8" fill="none" xmlns="http://www.w3.org/2000/svg">
<path fill-rule="evenodd" clip-rule="evenodd" d="M5 1C6.10457 1 7 1.89543 7 3V5C7 6.10457 6.10457 7 5 7H3C1.89543 7 1 6.10457 1 5V3C1 1.89543 1.89543 1 3 1H5ZM4 2C3.44772 2 3 2.44772 3 3V3.5C3 3.74171 3.17145 3.94371 3.39941 3.99023L3.60059 4.00977C3.82855 4.05629 4 4.25829 4 4.5C4 4.74171 3.82855 4.94371 3.60059 4.99023L3.39941 5.00977C3.17145 5.05629 3 5.25829 3 5.5C3 5.77614 3.22386 6 3.5 6H4C4.55228 6 5 5.55228 5 5V4.5C5 4.25829 4.82855 4.05629 4.60059 4.00977L4.39941 3.99023C4.17145 3.94371 4 3.74171 4 3.5C4 3.25829 4.17145 3.05629 4.39941 3.00977L4.60059 2.99023C4.82855 2.94371 5 2.74171 5 2.5C5 2.22386 4.77614 2 4.5 2H4Z" fill="FGCOLOR"/>
</svg>
