<svg width="8" height="8" viewBox="0 0 8 8" fill="none" xmlns="http://www.w3.org/2000/svg">
<path d="M5.5 1C5.77614 1 6 1.22386 6 1.5C6 1.77614 5.77614 2 5.5 2C5.22386 2 5 2.22386 5 2.5V5.5C5 5.77614 5.22386 6 5.5 6C5.77614 6 6 6.22386 6 6.5C6 6.77614 5.77614 7 5.5 7H2.5C2.22386 7 2 6.77614 2 6.5C2 6.22386 2.22386 6 2.5 6C2.77614 6 3 5.77614 3 5.5V4.5C3 4.22386 2.77614 4 2.5 4C2.22386 4 2 3.77614 2 3.5C2 3.22386 2.22386 3 2.5 3C2.77614 3 3 2.77614 3 2.5V2C3 1.44772 3.44772 1 4 1H5.5Z" fill="FGCOLOR"/>
</svg>
