<svg width="8" height="8" viewBox="0 0 8 8" fill="none" xmlns="http://www.w3.org/2000/svg">
<g clip-path="url(#clip0_6_3263)">
<path d="M4 2C4.55228 2 5 2.44772 5 3C5 3.55228 4.55228 4 4 4C3.44772 4 3 3.55228 3 3C3 2.44772 3.44772 2 4 2Z" fill="FGCOLOR"/>
<path fill-rule="evenodd" clip-rule="evenodd" d="M8 8H0V0H8V8ZM3.5 1C2.11929 1 1 2.11929 1 3.5V5.5C1 5.74171 0.828553 5.94371 0.600586 5.99023L0.399414 6.00977C0.171447 6.05629 0 6.25829 0 6.5C0 6.77614 0.223858 7 0.5 7H2C2.51768 7 2.94379 6.60667 2.99512 6.10254L3.00488 5.89746C3.05621 5.39333 3.48232 5 4 5H4.5C4.77614 5 5 5.22386 5 5.5C5 5.74171 4.82855 5.94371 4.60059 5.99023L4.39941 6.00977C4.17145 6.05629 4 6.25829 4 6.5C4 6.77614 4.22386 7 4.5 7H5.5C6.32843 7 7 6.32843 7 5.5V4C7 2.34315 5.65685 1 4 1H3.5Z" fill="FGCOLOR"/>
</g>
<defs>
<clipPath id="clip0_6_3263">
<rect width="8" height="8" fill="white"/>
</clipPath>
</defs>
</svg>
