<svg width="8" height="8" viewBox="0 0 8 8" fill="none" xmlns="http://www.w3.org/2000/svg">
<g clip-path="url(#clip0_6_3259)">
<path d="M4.5 5C4.77614 5 5 5.22386 5 5.5C5 5.77614 4.77614 6 4.5 6H3.5C3.22386 6 3 5.77614 3 5.5C3 5.22386 3.22386 5 3.5 5H4.5Z" fill="FGCOLOR"/>
<path d="M4 2C4.55228 2 5 2.44772 5 3C5 3.55228 4.55228 4 4 4C3.44772 4 3 3.55228 3 3C3 2.44772 3.44772 2 4 2Z" fill="FGCOLOR"/>
<path fill-rule="evenodd" clip-rule="evenodd" d="M8 8H0V0H8V8ZM3 1C1.89543 1 1 1.89543 1 3V5.5C1 5.74171 0.828553 5.94371 0.600586 5.99023L0.399414 6.00977C0.171447 6.05629 0 6.25829 0 6.5C0 6.77614 0.223858 7 0.5 7H6C6.55228 7 7 6.55228 7 6V5.5C7 5.25829 6.82855 5.05629 6.60059 5.00977L6.39941 4.99023C6.17145 4.94371 6 4.74171 6 4.5C6 4.25829 6.17145 4.05629 6.39941 4.00977L6.60059 3.99023C6.82855 3.94371 7 3.74171 7 3.5V2.5C7 1.67157 6.32843 1 5.5 1H3Z" fill="FGCOLOR"/>
</g>
<defs>
<clipPath id="clip0_6_3259">
<rect width="8" height="8" fill="white"/>
</clipPath>
</defs>
</svg>
