<svg width="8" height="8" viewBox="0 0 8 8" fill="none" xmlns="http://www.w3.org/2000/svg">
<path d="M7 3C7 3.55228 6.55228 4 6 4H5.5C5.22386 4 5 4.22386 5 4.5C5 4.77614 4.77614 5 4.5 5H3.5C3.22386 5 3 5.22386 3 5.5C3 5.77614 3.22386 6 3.5 6H5.5C5.77614 6 6 5.77614 6 5.5C6 5.22386 6.22386 5 6.5 5C6.77614 5 7 5.22386 7 5.5V6C7 6.55228 6.55228 7 6 7H2.5C1.67157 7 1 6.32843 1 5.5V5C1 4.44772 1.44772 4 2 4H2.5C2.77614 4 3 3.77614 3 3.5C3 3.22386 3.22386 3 3.5 3H4.5C4.77614 3 5 2.77614 5 2.5C5 2.22386 4.77614 2 4.5 2H2.5C2.22386 2 2 2.22386 2 2.5C2 2.77614 1.77614 3 1.5 3C1.22386 3 1 2.77614 1 2.5V2C1 1.44772 1.44772 1 2 1H5.5C6.32843 1 7 1.67157 7 2.5V3Z" fill="FGCOLOR"/>
</svg>
