<svg width="8" height="8" viewBox="0 0 8 8" fill="none" xmlns="http://www.w3.org/2000/svg">
<g clip-path="url(#clip0_6_3255)">
<path fill-rule="evenodd" clip-rule="evenodd" d="M8 8H0V0H8V8ZM3 1C1.89543 1 1 1.89543 1 3V5C1 6.10457 1.89543 7 3 7H6C6.55228 7 7 6.55228 7 6V5.5C7 5.22386 6.77614 5 6.5 5C6.25829 5 6.05629 5.17145 6.00977 5.39941L5.99023 5.60059C5.94371 5.82855 5.74171 6 5.5 6H4.5C3.67157 6 3 5.32843 3 4.5V3.5C3 2.67157 3.67157 2 4.5 2H5.5C5.74171 2 5.94371 2.17145 5.99023 2.39941L6.00977 2.60059C6.05629 2.82855 6.25829 3 6.5 3C6.77614 3 7 2.77614 7 2.5V2C7 1.44772 6.55228 1 6 1H3Z" fill="FGCOLOR"/>
</g>
<defs>
<clipPath id="clip0_6_3255">
<rect width="8" height="8" fill="white"/>
</clipPath>
</defs>
</svg>
