<svg width="8" height="8" viewBox="0 0 8 8" fill="none" xmlns="http://www.w3.org/2000/svg">
<g clip-path="url(#clip0_6_3247)">
<path d="M8 8H0V6.5C6.44259e-07 6.77614 0.223858 7 0.5 7H6C6.55228 7 7 6.55228 7 6V5.5C7 5.22386 6.77614 5 6.5 5C6.25829 5 6.05629 5.17145 6.00977 5.39941L5.99023 5.60059C5.94371 5.82855 5.74171 6 5.5 6H3.5C3.22386 6 3 5.77614 3 5.5C3 5.22386 3.22386 5 3.5 5H4C4.55228 5 5 4.55228 5 4V3.5C5 3.22386 4.77614 3 4.5 3C4.25829 3 4.05629 3.17145 4.00977 3.39941L3.99023 3.60059C3.94371 3.82855 3.74171 4 3.5 4C3.22386 4 3 3.77614 3 3.5V3C3 2.44772 3.44772 2 4 2H6C6.55228 2 7 1.55228 7 1V0.5C7 0.258287 6.82855 0.0562923 6.60059 0.00976562L6.5 0H8V8Z" fill="FGCOLOR"/>
<path d="M6.5 0C6.25829 2.53765e-06 6.05629 0.17145 6.00977 0.399414L5.99023 0.600586C5.94371 0.828554 5.74171 1 5.5 1H3C1.89543 1 1 1.89543 1 3V5.5C1 5.74171 0.828555 5.94371 0.600586 5.99023L0.399414 6.00977C0.172987 6.05598 0.00229319 6.25558 0 6.49512V0H6.5Z" fill="FGCOLOR"/>
</g>
<defs>
<clipPath id="clip0_6_3247">
<rect width="8" height="8" fill="white"/>
</clipPath>
</defs>
</svg>
