<svg width="8" height="8" viewBox="0 0 8 8" fill="none" xmlns="http://www.w3.org/2000/svg">
<g clip-path="url(#clip0_6_3243)">
<path d="M8 8H0V6.5C2.57704e-07 6.77614 0.223858 7 0.5 7H2C2.51768 7 2.94379 6.60667 2.99512 6.10254L3.00488 5.89746C3.05278 5.42703 3.42703 5.05278 3.89746 5.00488L4.10254 4.99512C4.60667 4.94379 5 4.51768 5 4V3.5C5 3.22386 4.77614 3 4.5 3C4.25829 3 4.05629 3.17145 4.00977 3.39941L3.99023 3.60059C3.94371 3.82855 3.74171 4 3.5 4C3.22386 4 3 3.77614 3 3.5V3C3 2.44772 3.44772 2 4 2H6C6.55228 2 7 1.55228 7 1V0.5C7 0.223858 6.77614 0 6.5 0H8V8Z" fill="FGCOLOR"/>
<path d="M6.5 0C6.25829 0 6.05629 0.171447 6.00977 0.399414L5.99023 0.600586C5.94371 0.828552 5.74171 1 5.5 1H3C1.89543 1 1 1.89543 1 3V5.5C1 5.74171 0.828552 5.94371 0.600586 5.99023L0.399414 6.00977C0.171447 6.05629 0 6.25829 0 6.5V0H6.5Z" fill="FGCOLOR"/>
</g>
<defs>
<clipPath id="clip0_6_3243">
<rect width="8" height="8" fill="white"/>
</clipPath>
</defs>
</svg>
