<svg width="8" height="8" viewBox="0 0 8 8" fill="none" xmlns="http://www.w3.org/2000/svg">
<g clip-path="url(#clip0_6_3235)">
<path fill-rule="evenodd" clip-rule="evenodd" d="M8 8H0V0H8V8ZM3.5 1C3.25829 1 3.05629 1.17145 3.00977 1.39941L2.99023 1.60059C2.95034 1.79608 2.79608 1.95034 2.60059 1.99023L2.39941 2.00977C2.17145 2.05629 2 2.25829 2 2.5V5.5C2 5.74171 2.17145 5.94371 2.39941 5.99023L2.60059 6.00977C2.79608 6.04966 2.95034 6.20392 2.99023 6.39941L3.00977 6.60059C3.05629 6.82855 3.25829 7 3.5 7H4.5C4.77614 7 5 6.77614 5 6.5C5 6.25829 4.82855 6.05629 4.60059 6.00977L4.39941 5.99023C4.17145 5.94371 4 5.74171 4 5.5V2.5C4 2.25829 4.17145 2.05629 4.39941 2.00977L4.60059 1.99023C4.82855 1.94371 5 1.74171 5 1.5C5 1.22386 4.77614 1 4.5 1H3.5Z" fill="FGCOLOR"/>
</g>
<defs>
<clipPath id="clip0_6_3235">
<rect width="8" height="8" fill="white"/>
</clipPath>
</defs>
</svg>
