<svg width="8" height="8" viewBox="0 0 8 8" fill="none" xmlns="http://www.w3.org/2000/svg">
<g clip-path="url(#clip0_6_3231)">
<path fill-rule="evenodd" clip-rule="evenodd" d="M8 8H0V0H8V8ZM3.5 1C3.22386 1 3 1.22386 3 1.5C3 1.74171 3.17145 1.94371 3.39941 1.99023L3.60059 2.00977C3.82855 2.05629 4 2.25829 4 2.5V5.5C4 5.74171 3.82855 5.94371 3.60059 5.99023L3.39941 6.00977C3.17145 6.05629 3 6.25829 3 6.5C3 6.77614 3.22386 7 3.5 7H4.5C4.74171 7 4.94371 6.82855 4.99023 6.60059L5.00977 6.39941C5.04966 6.20392 5.20392 6.04966 5.39941 6.00977L5.60059 5.99023C5.82855 5.94371 6 5.74171 6 5.5V2.5C6 2.25829 5.82855 2.05629 5.60059 2.00977L5.39941 1.99023C5.20392 1.95034 5.04966 1.79608 5.00977 1.60059L4.99023 1.39941C4.94371 1.17145 4.74171 1 4.5 1H3.5Z" fill="FGCOLOR"/>
</g>
<defs>
<clipPath id="clip0_6_3231">
<rect width="8" height="8" fill="white"/>
</clipPath>
</defs>
</svg>
