<svg width="8" height="8" viewBox="0 0 8 8" fill="none" xmlns="http://www.w3.org/2000/svg">
<g clip-path="url(#clip0_6_3227)">
<path d="M4 2C4.55228 2 5 2.44772 5 3V3.5C5 3.77614 4.77614 4 4.5 4C4.25829 4 4.05629 3.82855 4.00977 3.60059L3.99023 3.39941C3.94371 3.17145 3.74171 3 3.5 3C3.22386 3 3 3.22386 3 3.5V3C3 2.44772 3.44772 2 4 2Z" fill="FGCOLOR"/>
<path fill-rule="evenodd" clip-rule="evenodd" d="M8 8H0V0H8V8ZM3 1C1.89543 1 1 1.89543 1 3V5C1 6.10457 1.89543 7 3 7H6C6.55228 7 7 6.55228 7 6V5.5C7 5.22386 6.77614 5 6.5 5C6.25829 5 6.05629 5.17145 6.00977 5.39941L5.99023 5.60059C5.94371 5.82855 5.74171 6 5.5 6H4.5C3.67157 6 3 5.32843 3 4.5V4C3 4.55228 3.44772 5 4 5H5.5C6.32843 5 7 4.32843 7 3.5V2.5C7 1.67157 6.32843 1 5.5 1H3Z" fill="FGCOLOR"/>
</g>
<defs>
<clipPath id="clip0_6_3227">
<rect width="8" height="8" fill="white"/>
</clipPath>
</defs>
</svg>
