<svg width="8" height="8" viewBox="0 0 8 8" fill="none" xmlns="http://www.w3.org/2000/svg">
<g clip-path="url(#clip0_6_3223)">
<path d="M6 0C5.48232 1.50972e-08 5.05621 0.393331 5.00488 0.897461L4.99512 1.10254C4.94379 1.60667 4.51768 2 4 2H3.5C3.22386 2 3 1.77614 3 1.5C3 1.25829 3.17145 1.05629 3.39941 1.00977L3.60059 0.990234C3.82855 0.943708 4 0.741713 4 0.5C4 0.223858 3.77614 3.22128e-08 3.5 0H6Z" fill="FGCOLOR"/>
<path d="M4.5 3C4.77614 3 5 3.22386 5 3.5C5 3.77614 4.77614 4 4.5 4H3.5C3.22386 4 3 3.77614 3 3.5C3 3.22386 3.22386 3 3.5 3H4.5Z" fill="FGCOLOR"/>
<path d="M8 8H0V0H2C1.44772 1.61065e-08 1 0.447715 1 1V1.5C1 1.74171 0.828553 1.94371 0.600586 1.99023L0.399414 2.00977C0.171447 2.05629 0 2.25829 0 2.5C0 2.74171 0.171447 2.94371 0.399414 2.99023L0.600586 3.00977C0.828553 3.05629 1 3.25829 1 3.5C1 3.74171 0.828553 3.94371 0.600586 3.99023L0.399414 4.00977C0.171447 4.05629 0 4.25829 0 4.5C0 4.74171 0.171447 4.94371 0.399414 4.99023L0.600586 5.00977C0.828553 5.05629 1 5.25829 1 5.5C1 5.74171 0.828553 5.94371 0.600586 5.99023L0.399414 6.00977C0.171447 6.05629 0 6.25829 0 6.5C0 6.77614 0.223858 7 0.5 7H2C2.51768 7 2.94379 6.60667 2.99512 6.10254L3.00488 5.89746C3.05621 5.39333 3.48232 5 4 5H4.5C4.77614 5 5 5.22386 5 5.5C5 5.74171 4.82855 5.94371 4.60059 5.99023L4.39941 6.00977C4.17145 6.05629 4 6.25829 4 6.5C4 6.77614 4.22386 7 4.5 7H6C6.55228 7 7 6.55228 7 6V5.5C7 5.25829 7.17145 5.05629 7.39941 5.00977L7.60059 4.99023C7.82855 4.94371 8 4.74171 8 4.5C8 4.25829 7.82855 4.05629 7.60059 4.00977L7.39941 3.99023C7.17145 3.94371 7 3.74171 7 3.5C7 3.25829 7.17145 3.05629 7.39941 3.00977L7.60059 2.99023C7.82855 2.94371 8 2.74171 8 2.5C8 2.25829 7.82855 2.05629 7.60059 2.00977L7.39941 1.99023C7.17145 1.94371 7 1.74171 7 1.5C7 1.25829 7.17145 1.05629 7.39941 1.00977L7.60059 0.990234C7.82855 0.943708 8 0.741713 8 0.5C8 0.223858 7.77614 3.22128e-08 7.5 0H8V8Z" fill="FGCOLOR"/>
</g>
<defs>
<clipPath id="clip0_6_3223">
<rect width="8" height="8" fill="white"/>
</clipPath>
</defs>
</svg>
