<svg width="8" height="8" viewBox="0 0 8 8" fill="none" xmlns="http://www.w3.org/2000/svg">
<g clip-path="url(#clip0_6_3219)">
<path d="M4.5 2C4.77614 2 5 2.22386 5 2.5C5 2.74171 4.82855 2.94371 4.60059 2.99023L4.39941 3.00977C4.17145 3.05629 4 3.25829 4 3.5C4 3.74171 4.17145 3.94371 4.39941 3.99023L4.60059 4.00977C4.82855 4.05629 5 4.25829 5 4.5V5C5 5.55228 4.55228 6 4 6H3.5C3.22386 6 3 5.77614 3 5.5C3 5.25829 3.17145 5.05629 3.39941 5.00977L3.60059 4.99023C3.82855 4.94371 4 4.74171 4 4.5C4 4.25829 3.82855 4.05629 3.60059 4.00977L3.39941 3.99023C3.17145 3.94371 3 3.74171 3 3.5V3C3 2.44772 3.44772 2 4 2H4.5Z" fill="FGCOLOR"/>
<path fill-rule="evenodd" clip-rule="evenodd" d="M8 8H0V0H8V8ZM3 1C1.89543 1 1 1.89543 1 3V5C1 6.10457 1.89543 7 3 7H5C6.10457 7 7 6.10457 7 5V3C7 1.89543 6.10457 1 5 1H3Z" fill="FGCOLOR"/>
</g>
<defs>
<clipPath id="clip0_6_3219">
<rect width="8" height="8" fill="white"/>
</clipPath>
</defs>
</svg>
