<svg width="8" height="8" viewBox="0 0 8 8" fill="none" xmlns="http://www.w3.org/2000/svg">
<path d="M2 5.5C2 5.77614 2.22386 6 2.5 6H4.5C4.77614 6 5 5.77614 5 5.5C5 5.22386 4.77614 5 4.5 5H3.5C3.22386 5 3 4.77614 3 4.5C3 4.22386 3.22386 4 3.5 4H4C4.55228 4 5 3.55228 5 3C5 2.44772 4.55228 2 4 2H2.5C2.22386 2 2 2.22386 2 2.5C2 2.77614 1.77614 3 1.5 3C1.22386 3 1 2.77614 1 2.5V2C1 1.44772 1.44772 1 2 1H5.5C6.32843 1 7 1.67157 7 2.5V3.5C7 3.77614 6.77614 4 6.5 4C6.22386 4 6 4.22386 6 4.5C6 4.77614 6.22386 5 6.5 5C6.77614 5 7 5.22386 7 5.5V6C7 6.55228 6.55228 7 6 7H2C1.44772 7 1 6.55228 1 6V5.5C1 5.22386 1.22386 5 1.5 5C1.77614 5 2 5.22386 2 5.5Z" fill="FGCOLOR"/>
</svg>
