<svg width="8" height="8" viewBox="0 0 8 8" fill="none" xmlns="http://www.w3.org/2000/svg">
<g clip-path="url(#clip0_6_3215)">
<path fill-rule="evenodd" clip-rule="evenodd" d="M8 8H0V0H8V8ZM4 1C3.44772 1 3 1.44772 3 2V2.5C3 2.74171 2.82855 2.94371 2.60059 2.99023L2.39941 3.00977C2.17145 3.05629 2 3.25829 2 3.5C2 3.74171 2.17145 3.94371 2.39941 3.99023L2.60059 4.00977C2.82855 4.05629 3 4.25829 3 4.5V5.5C3 5.74171 2.82855 5.94371 2.60059 5.99023L2.39941 6.00977C2.17145 6.05629 2 6.25829 2 6.5C2 6.77614 2.22386 7 2.5 7H5.5C5.77614 7 6 6.77614 6 6.5C6 6.25829 5.82855 6.05629 5.60059 6.00977L5.39941 5.99023C5.17145 5.94371 5 5.74171 5 5.5V2.5C5 2.25829 5.17145 2.05629 5.39941 2.00977L5.60059 1.99023C5.82855 1.94371 6 1.74171 6 1.5C6 1.22386 5.77614 1 5.5 1H4Z" fill="FGCOLOR"/>
</g>
<defs>
<clipPath id="clip0_6_3215">
<rect width="8" height="8" fill="white"/>
</clipPath>
</defs>
</svg>
