<svg width="8" height="8" viewBox="0 0 8 8" fill="none" xmlns="http://www.w3.org/2000/svg">
<g clip-path="url(#clip0_6_3211)">
<path fill-rule="evenodd" clip-rule="evenodd" d="M8 8H0V0H8V8ZM2 1C1.44772 1 1 1.44772 1 2V2.5C1 2.77614 1.22386 3 1.5 3C1.74171 3 1.94371 2.82855 1.99023 2.60059L2.00977 2.39941C2.05629 2.17145 2.25829 2 2.5 2H4.5C4.77614 2 5 2.22386 5 2.5C5 2.77614 4.77614 3 4.5 3H3.5C3.25829 3 3.05629 3.17145 3.00977 3.39941L2.99023 3.60059C2.94371 3.82855 2.74171 4 2.5 4H2C1.44772 4 1 4.44772 1 5V5.5C1 6.32843 1.67157 7 2.5 7H6C6.55228 7 7 6.55228 7 6V5.5C7 5.22386 6.77614 5 6.5 5C6.25829 5 6.05629 5.17145 6.00977 5.39941L5.99023 5.60059C5.94371 5.82855 5.74171 6 5.5 6H3.5C3.22386 6 3 5.77614 3 5.5C3 5.22386 3.22386 5 3.5 5H4.5C4.74171 5 4.94371 4.82855 4.99023 4.60059L5.00977 4.39941C5.05629 4.17145 5.25829 4 5.5 4H6C6.55228 4 7 3.55228 7 3V2.5C7 1.67157 6.32843 1 5.5 1H2Z" fill="FGCOLOR"/>
</g>
<defs>
<clipPath id="clip0_6_3211">
<rect width="8" height="8" fill="white"/>
</clipPath>
</defs>
</svg>
