<svg width="8" height="8" viewBox="0 0 8 8" fill="none" xmlns="http://www.w3.org/2000/svg">
<g clip-path="url(#clip0_6_3207)">
<path fill-rule="evenodd" clip-rule="evenodd" d="M0 0V8H8V0H0ZM5.5 1C6.32843 1 7 1.67157 7 2.5V3.5C7 3.74171 6.82855 3.94371 6.60059 3.99023L6.39941 4.00977C6.17145 4.05629 6 4.25829 6 4.5C6 4.74171 6.17145 4.94371 6.39941 4.99023L6.60059 5.00977C6.82855 5.05629 7 5.25829 7 5.5V6C7 6.55228 6.55228 7 6 7H2C1.44772 7 1 6.55228 1 6V5.5C1 5.22386 1.22386 5 1.5 5C1.74171 5 1.94371 5.17145 1.99023 5.39941L2.00977 5.60059C2.05629 5.82855 2.25829 6 2.5 6H4.5C4.77614 6 5 5.77614 5 5.5C5 5.22386 4.77614 5 4.5 5H3.5C3.22386 5 3 4.77614 3 4.5C3 4.22386 3.22386 4 3.5 4H4C4.55228 4 5 3.55228 5 3C5 2.44772 4.55228 2 4 2H2.5C2.25829 2 2.05629 2.17145 2.00977 2.39941L1.99023 2.60059C1.94371 2.82855 1.74171 3 1.5 3C1.22386 3 1 2.77614 1 2.5V2C1 1.44772 1.44772 1 2 1H5.5Z" fill="FGCOLOR"/>
</g>
<defs>
<clipPath id="clip0_6_3207">
<rect width="8" height="8" fill="white" transform="matrix(-1 0 0 1 8 0)"/>
</clipPath>
</defs>
</svg>
