<svg width="8" height="8" viewBox="0 0 8 8" fill="none" xmlns="http://www.w3.org/2000/svg">
<g clip-path="url(#clip0_6_3203)">
<path d="M3.5 3C3.77614 3 4 3.22386 4 3.5C4 3.77614 3.77614 4 3.5 4C3.22386 4 3 3.77614 3 3.5C3 3.22386 3.22386 3 3.5 3Z" fill="FGCOLOR"/>
<path fill-rule="evenodd" clip-rule="evenodd" d="M8 8H0V0H8V8ZM4.5 1C4.25829 1 4.05629 1.17145 4.00977 1.39941L3.99023 1.60059C3.95034 1.79608 3.79608 1.95034 3.60059 1.99023L3.39941 2.00977C3.20392 2.04966 3.04966 2.20392 3.00977 2.39941L2.99023 2.60059C2.95034 2.79608 2.79608 2.95034 2.60059 2.99023L2.39941 3.00977C2.20392 3.04966 2.04966 3.20392 2.00977 3.39941L1.99023 3.60059C1.95034 3.79608 1.79608 3.95034 1.60059 3.99023L1.39941 4.00977C1.17145 4.05629 1 4.25829 1 4.5C1 4.77614 1.22386 5 1.5 5H3.5C3.77614 5 4 5.22386 4 5.5C4 5.74171 3.82855 5.94371 3.60059 5.99023L3.39941 6.00977C3.17145 6.05629 3 6.25829 3 6.5C3 6.77614 3.22386 7 3.5 7H5C5.55228 7 6 6.55228 6 6V5.5C6 5.25829 6.17145 5.05629 6.39941 5.00977L6.60059 4.99023C6.82855 4.94371 7 4.74171 7 4.5C7 4.25829 6.82855 4.05629 6.60059 4.00977L6.39941 3.99023C6.17145 3.94371 6 3.74171 6 3.5V2.5C6 2.25829 6.17145 2.05629 6.39941 2.00977L6.60059 1.99023C6.82855 1.94371 7 1.74171 7 1.5C7 1.22386 6.77614 1 6.5 1H4.5Z" fill="FGCOLOR"/>
</g>
<defs>
<clipPath id="clip0_6_3203">
<rect width="8" height="8" fill="white"/>
</clipPath>
</defs>
</svg>
