<svg width="8" height="8" viewBox="0 0 8 8" fill="none" xmlns="http://www.w3.org/2000/svg">
<g clip-path="url(#clip0_6_3191)">
<path fill-rule="evenodd" clip-rule="evenodd" d="M8 8H0V0H8V8ZM5.5 1C4.67157 1 4 1.67157 4 2.5V5.5C4 5.77614 3.77614 6 3.5 6C3.22386 6 3 5.77614 3 5.5V5C3 4.44772 2.55228 4 2 4C1.44772 4 1 4.44772 1 5V5.5C1 6.32843 1.67157 7 2.5 7H4C5.10457 7 6 6.10457 6 5V2.5C6 2.25829 6.17145 2.05629 6.39941 2.00977L6.60059 1.99023C6.82855 1.94371 7 1.74171 7 1.5C7 1.22386 6.77614 1 6.5 1H5.5Z" fill="FGCOLOR"/>
</g>
<defs>
<clipPath id="clip0_6_3191">
<rect width="8" height="8" fill="white"/>
</clipPath>
</defs>
</svg>
