<svg width="8" height="8" viewBox="0 0 8 8" fill="none" xmlns="http://www.w3.org/2000/svg">
<g clip-path="url(#clip0_6_3187)">
<path fill-rule="evenodd" clip-rule="evenodd" d="M8 8H0V0H8V8ZM2.5 1C1.67157 1 1 1.67157 1 2.5V5.5C1 5.74171 0.828553 5.94371 0.600586 5.99023L0.399414 6.00977C0.171447 6.05629 0 6.25829 0 6.5C0 6.77614 0.223858 7 0.5 7H2C2.55228 7 3 6.55228 3 6V5.5C3 5.22386 3.22386 5 3.5 5C3.74171 5 3.94371 5.17145 3.99023 5.39941L4.00977 5.60059C4.04966 5.79608 4.20392 5.95034 4.39941 5.99023L4.60059 6.00977C4.79608 6.04966 4.95034 6.20392 4.99023 6.39941L5.00977 6.60059C5.05629 6.82855 5.25829 7 5.5 7H6.5C6.77614 7 7 6.77614 7 6.5C7 6.25829 6.82855 6.05629 6.60059 6.00977L6.39941 5.99023C6.20392 5.95034 6.04966 5.79608 6.00977 5.60059L5.99023 5.39941C5.95034 5.20392 5.79608 5.04966 5.60059 5.00977L5.39941 4.99023C5.17145 4.94371 5 4.74171 5 4.5C5 4.25829 5.17145 4.05629 5.39941 4.00977L5.60059 3.99023C5.82855 3.94371 6 3.74171 6 3.5V2.5C6 2.25829 6.17145 2.05629 6.39941 2.00977L6.60059 1.99023C6.82855 1.94371 7 1.74171 7 1.5C7 1.22386 6.77614 1 6.5 1H6C5.44772 1 5 1.44772 5 2V2.5C5 2.74171 4.82855 2.94371 4.60059 2.99023L4.39941 3.00977C4.20392 3.04966 4.04966 3.20392 4.00977 3.39941L3.99023 3.60059C3.94371 3.82855 3.74171 4 3.5 4C3.22386 4 3 3.77614 3 3.5V2.5C3 2.25829 3.17145 2.05629 3.39941 2.00977L3.60059 1.99023C3.82855 1.94371 4 1.74171 4 1.5C4 1.22386 3.77614 1 3.5 1H2.5Z" fill="FGCOLOR"/>
</g>
<defs>
<clipPath id="clip0_6_3187">
<rect width="8" height="8" fill="white"/>
</clipPath>
</defs>
</svg>
