<svg width="8" height="8" viewBox="0 0 8 8" fill="none" xmlns="http://www.w3.org/2000/svg">
<g clip-path="url(#clip0_6_3179)">
<path d="M8 2C8 1.44772 7.55228 1 7 1C6.44772 1 6 1.44772 6 2V2.5C6 2.74171 5.82855 2.94371 5.60059 2.99023L5.39941 3.00977C5.20392 3.04966 5.04966 3.20392 5.00977 3.39941L4.99023 3.60059C4.94371 3.82855 4.74171 4 4.5 4C4.25829 4 4.05629 3.82855 4.00977 3.60059L3.99023 3.39941C3.95034 3.20392 3.79608 3.04966 3.60059 3.00977L3.39941 2.99023C3.17145 2.94371 3 2.74171 3 2.5C3 2.25829 3.17145 2.05629 3.39941 2.00977L3.60059 1.99023C3.82855 1.94371 4 1.74171 4 1.5C4 1.22386 3.77614 1 3.5 1H2.5C1.67157 1 1 1.67157 1 2.5V5.5C1 5.74171 0.828553 5.94371 0.600586 5.99023L0.399414 6.00977C0.171447 6.05629 0 6.25829 0 6.5C0 6.77614 0.223858 7 0.5 7H2C2.55228 7 3 6.55228 3 6V5.5C3 5.22386 3.22386 5 3.5 5C3.74171 5 3.94371 5.17145 3.99023 5.39941L4.00977 5.60059C4.05629 5.82855 4.25829 6 4.5 6C4.74171 6 4.94371 5.82855 4.99023 5.60059L5.00977 5.39941C5.05629 5.17145 5.25829 5 5.5 5C5.77614 5 6 5.22386 6 5.5C6 5.74171 5.82855 5.94371 5.60059 5.99023L5.39941 6.00977C5.17145 6.05629 5 6.25829 5 6.5C5 6.77614 5.22386 7 5.5 7H6.5C6.59414 7 6.68605 6.99022 6.77539 6.97363C6.84766 6.99024 6.92269 7 7 7C7.55228 7 8 6.55228 8 6V8H0V0H8V2Z" fill="FGCOLOR"/>
</g>
<defs>
<clipPath id="clip0_6_3179">
<rect width="8" height="8" fill="white"/>
</clipPath>
</defs>
</svg>
