<svg width="8" height="8" viewBox="0 0 8 8" fill="none" xmlns="http://www.w3.org/2000/svg">
<path fill-rule="evenodd" clip-rule="evenodd" d="M6.5 1C6.77614 1 7 1.22386 7 1.5C7 1.74171 6.82855 1.94371 6.60059 1.99023L6.39941 2.00977C6.17145 2.05629 6 2.25829 6 2.5V3.5C6 3.74171 6.17145 3.94371 6.39941 3.99023L6.60059 4.00977C6.82855 4.05629 7 4.25829 7 4.5C7 4.74171 6.82855 4.94371 6.60059 4.99023L6.39941 5.00977C6.17145 5.05629 6 5.25829 6 5.5V6C6 6.55228 5.55228 7 5 7H3.5C3.22386 7 3 6.77614 3 6.5C3 6.25829 3.17145 6.05629 3.39941 6.00977L3.60059 5.99023C3.82855 5.94371 4 5.74171 4 5.5C4 5.22386 3.77614 5 3.5 5H1.5C1.22386 5 1 4.77614 1 4.5C1 4.25829 1.17145 4.05629 1.39941 4.00977L1.60059 3.99023C1.79608 3.95034 1.95034 3.79608 1.99023 3.60059L2.00977 3.39941C2.04966 3.20392 2.20392 3.04966 2.39941 3.00977L2.60059 2.99023C2.79608 2.95034 2.95034 2.79608 2.99023 2.60059L3.00977 2.39941C3.04966 2.20392 3.20392 2.04966 3.39941 2.00977L3.60059 1.99023C3.79608 1.95034 3.95034 1.79608 3.99023 1.60059L4.00977 1.39941C4.05629 1.17145 4.25829 1 4.5 1H6.5ZM3.5 3C3.22386 3 3 3.22386 3 3.5C3 3.77614 3.22386 4 3.5 4C3.77614 4 4 3.77614 4 3.5C4 3.22386 3.77614 3 3.5 3Z" fill="FGCOLOR"/>
</svg>
