<svg width="8" height="8" viewBox="0 0 8 8" fill="none" xmlns="http://www.w3.org/2000/svg">
<g clip-path="url(#clip0_6_3175)">
<path fill-rule="evenodd" clip-rule="evenodd" d="M8 8H0V0H8V8ZM2.5 1C1.67157 1 1 1.67157 1 2.5V5.5C1 5.74171 0.828553 5.94371 0.600586 5.99023L0.399414 6.00977C0.171447 6.05629 0 6.25829 0 6.5C0 6.77614 0.223858 7 0.5 7H2C2.55228 7 3 6.55228 3 6V5.5C3 5.22386 3.22386 5 3.5 5C3.77614 5 4 5.22386 4 5.5V6C4 6.55228 4.44772 7 5 7H5.5C6.32843 7 7 6.32843 7 5.5V2.5C7 2.25829 7.17145 2.05629 7.39941 2.00977L7.60059 1.99023C7.82855 1.94371 8 1.74171 8 1.5C8 1.22386 7.77614 1 7.5 1H6.5C5.67157 1 5 1.67157 5 2.5V3.5C5 3.77614 4.77614 4 4.5 4C4.25829 4 4.05629 3.82855 4.00977 3.60059L3.99023 3.39941C3.95034 3.20392 3.79608 3.04966 3.60059 3.00977L3.39941 2.99023C3.17145 2.94371 3 2.74171 3 2.5C3 2.25829 3.17145 2.05629 3.39941 2.00977L3.60059 1.99023C3.82855 1.94371 4 1.74171 4 1.5C4 1.22386 3.77614 1 3.5 1H2.5Z" fill="FGCOLOR"/>
</g>
<defs>
<clipPath id="clip0_6_3175">
<rect width="8" height="8" fill="white"/>
</clipPath>
</defs>
</svg>
