<svg width="8" height="8" viewBox="0 0 8 8" fill="none" xmlns="http://www.w3.org/2000/svg">
<g clip-path="url(#clip0_6_3171)">
<path d="M6.5 0C6.25829 0 6.05629 0.171449 6.00977 0.399414L5.99023 0.600586C5.94371 0.828554 5.74171 1 5.5 1H4C2.89543 1 2 1.89543 2 3V5C2 6.10457 2.89543 7 4 7H5.5C5.77614 7 6 6.77614 6 6.5C6 6.22386 5.77614 6 5.5 6H5C4.44772 6 4 5.55228 4 5V3.5C4 2.67157 4.67157 2 5.5 2H6C6.55228 2 7 1.55228 7 1V0.5C7 0.258287 6.82855 0.0562924 6.60059 0.00976562L6.5 0H8V8H0V0H6.5Z" fill="FGCOLOR"/>
</g>
<defs>
<clipPath id="clip0_6_3171">
<rect width="8" height="8" fill="white"/>
</clipPath>
</defs>
</svg>
