<svg width="8" height="8" viewBox="0 0 8 8" fill="none" xmlns="http://www.w3.org/2000/svg">
<g clip-path="url(#clip0_6_3167)">
<path d="M8 8H1.5C1.74171 8 1.94371 7.82855 1.99023 7.60059L2.00977 7.39941C2.05629 7.17145 2.25829 7 2.5 7H4C5.10457 7 6 6.10457 6 5V3C6 1.89543 5.10457 1 4 1H2.5C2.22386 1 2 1.22386 2 1.5C2 1.77614 2.22386 2 2.5 2H3C3.55228 2 4 2.44772 4 3V4.5C4 5.32843 3.32843 6 2.5 6H2C1.44772 6 1 6.44772 1 7V7.5C1 7.77614 1.22386 8 1.5 8H0V0H8V8Z" fill="FGCOLOR"/>
</g>
<defs>
<clipPath id="clip0_6_3167">
<rect width="8" height="8" fill="white"/>
</clipPath>
</defs>
</svg>
