<svg width="8" height="8" viewBox="0 0 8 8" fill="none" xmlns="http://www.w3.org/2000/svg">
<g clip-path="url(#clip0_6_3163)">
<path d="M3.5 0C3.25829 0 3.05629 0.171447 3.00977 0.399414L2.99023 0.600586C2.94371 0.828553 2.74171 1 2.5 1H2C1.44772 1 1 1.44772 1 2V3C1 3.55228 1.44772 4 2 4H2.5C2.74171 4 2.94371 4.17145 2.99023 4.39941L3.00977 4.60059C3.05629 4.82855 3.25829 5 3.5 5H4.5C4.77614 5 5 5.22386 5 5.5C5 5.77614 4.77614 6 4.5 6H2.5C2.25829 6 2.05629 5.82855 2.00977 5.60059L1.99023 5.39941C1.94371 5.17145 1.74171 5 1.5 5C1.22386 5 1 5.22386 1 5.5V6C1 6.55228 1.44772 7 2 7H2.5C2.74171 7 2.94371 7.17145 2.99023 7.39941L3.00977 7.60059C3.05629 7.82855 3.25829 8 3.5 8H0V0H3.5Z" fill="FGCOLOR"/>
<path d="M8 8H4.5C4.74171 8 4.94371 7.82855 4.99023 7.60059L5.00977 7.39941C5.05629 7.17145 5.25829 7 5.5 7H6C6.55228 7 7 6.55228 7 6V5C7 4.44772 6.55228 4 6 4H5.5C5.25829 4 5.05629 3.82855 5.00977 3.60059L4.99023 3.39941C4.94371 3.17145 4.74171 3 4.5 3H3.5C3.22386 3 3 2.77614 3 2.5C3 2.22386 3.22386 2 3.5 2H5.5C5.74171 2 5.94371 2.17145 5.99023 2.39941L6.00977 2.60059C6.05629 2.82855 6.25829 3 6.5 3C6.77614 3 7 2.77614 7 2.5V2C7 1.44772 6.55228 1 6 1H5.5C5.25829 1 5.05629 0.828553 5.00977 0.600586L4.99023 0.399414C4.94371 0.171447 4.74171 0 4.5 0H8V8Z" fill="FGCOLOR"/>
</g>
<defs>
<clipPath id="clip0_6_3163">
<rect width="8" height="8" fill="white"/>
</clipPath>
</defs>
</svg>
