<svg width="8" height="8" viewBox="0 0 8 8" fill="none" xmlns="http://www.w3.org/2000/svg">
<g clip-path="url(#clip0_6_3155)">
<path d="M6.5 0C6.25828 0 6.05629 0.171444 6.00977 0.399414L5.99023 0.600586C5.94371 0.82855 5.74171 1 5.5 1H2.5C1.67157 1 1 1.67157 1 2.5C1 3.32843 1.67157 4 2.5 4H4C4.55228 4 5 4.44772 5 5C5 5.55228 4.55228 6 4 6H2.5C2.25829 6 2.05629 5.82855 2.00977 5.60059L1.99023 5.39941C1.94371 5.17145 1.74171 5 1.5 5C1.22386 5 1 5.22386 1 5.5V6C1 6.55228 1.44772 7 2 7H5C6.10457 7 7 6.10457 7 5C7 3.89543 6.10457 3 5 3H3.5C3.22386 3 3 2.77614 3 2.5C3 2.22386 3.22386 2 3.5 2H6C6.55228 2 7 1.55228 7 1V0.5C7 0.258287 6.82855 0.056292 6.60059 0.00976562L6.5 0H8V8H0V0H6.5Z" fill="FGCOLOR"/>
</g>
<defs>
<clipPath id="clip0_6_3155">
<rect width="8" height="8" fill="white"/>
</clipPath>
</defs>
</svg>
