<svg width="8" height="8" viewBox="0 0 8 8" fill="none" xmlns="http://www.w3.org/2000/svg">
<g clip-path="url(#clip0_6_3147)">
<path fill-rule="evenodd" clip-rule="evenodd" d="M8 8H0V0H8V8ZM2 1C1.44772 1 1 1.44772 1 2C1 2.55228 1.44772 3 2 3H2.5C2.74171 3 2.94371 2.82855 2.99023 2.60059L3.00977 2.39941C3.05629 2.17145 3.25829 2 3.5 2H4.5C4.77614 2 5 2.22386 5 2.5C5 2.74171 4.82855 2.94371 4.60059 2.99023L4.39941 3.00977C4.20392 3.04966 4.04966 3.20392 4.00977 3.39941L3.99023 3.60059C3.95034 3.79608 3.79608 3.95034 3.60059 3.99023L3.39941 4.00977C3.17145 4.05629 3 4.25829 3 4.5V5.5C3 5.74171 2.82855 5.94371 2.60059 5.99023L2.39941 6.00977C2.17145 6.05629 2 6.25829 2 6.5C2 6.77614 2.22386 7 2.5 7H3.5C4.32843 7 5 6.32843 5 5.5V5C5 4.48232 5.39333 4.05621 5.89746 4.00488L6.10254 3.99512C6.60667 3.94379 7 3.51768 7 3V2.5C7 1.67157 6.32843 1 5.5 1H2Z" fill="FGCOLOR"/>
</g>
<defs>
<clipPath id="clip0_6_3147">
<rect width="8" height="8" fill="white"/>
</clipPath>
</defs>
</svg>
