<svg width="8" height="8" viewBox="0 0 8 8" fill="none" xmlns="http://www.w3.org/2000/svg">
<g clip-path="url(#clip0_6_3139)">
<path d="M4 2C4.55228 2 5 2.44772 5 3C5 3.55228 4.55228 4 4 4C3.44772 4 3 3.55228 3 3C3 2.44772 3.44772 2 4 2Z" fill="FGCOLOR"/>
<path fill-rule="evenodd" clip-rule="evenodd" d="M8 8H0V0H8V8ZM3 1C1.89543 1 1 1.89543 1 3C1 4.10457 1.89543 5 3 5H4.5C4.77614 5 5 5.22386 5 5.5C5 5.77614 4.77614 6 4.5 6H2.5C2.25829 6 2.05629 5.82855 2.00977 5.60059L1.99023 5.39941C1.94371 5.17145 1.74171 5 1.5 5C1.22386 5 1 5.22386 1 5.5V6C1 6.55228 1.44772 7 2 7H5C6.10457 7 7 6.10457 7 5V3C7 1.89543 6.10457 1 5 1H3Z" fill="FGCOLOR"/>
</g>
<defs>
<clipPath id="clip0_6_3139">
<rect width="8" height="8" fill="white"/>
</clipPath>
</defs>
</svg>
