<svg width="8" height="8" viewBox="0 0 8 8" fill="none" xmlns="http://www.w3.org/2000/svg">
<path d="M4 1.5C4 1.77614 3.77614 2 3.5 2C3.22386 2 3 2.22386 3 2.5V3C3 3.55228 3.44772 4 4 4C4.55228 4 5 3.55228 5 3V2.5C5 1.67157 5.67157 1 6.5 1H7.5C7.77614 1 8 1.22386 8 1.5C8 1.77614 7.77614 2 7.5 2C7.22386 2 7 2.22386 7 2.5V5.5C7 6.32843 6.32843 7 5.5 7H4.5C4.22386 7 4 6.77614 4 6.5C4 6.22386 4.22386 6 4.5 6C4.77614 6 5 5.77614 5 5.5C5 5.22386 4.77614 5 4.5 5H4C3.44772 5 3 5.44772 3 6C3 6.55228 2.55228 7 2 7H0.5C0.223858 7 0 6.77614 0 6.5C0 6.22386 0.223858 6 0.5 6C0.776142 6 1 5.77614 1 5.5V2.5C1 1.67157 1.67157 1 2.5 1H3.5C3.77614 1 4 1.22386 4 1.5Z" fill="FGCOLOR"/>
</svg>
