<svg width="8" height="8" viewBox="0 0 8 8" fill="none" xmlns="http://www.w3.org/2000/svg">
<g clip-path="url(#clip0_6_3127)">
<path d="M8 8H6.5C6.77614 8 7 7.77614 7 7.5C7 7.25829 6.82855 7.05629 6.60059 7.00977L6.39941 6.99023C6.17145 6.94371 6 6.74171 6 6.5C6 6.25829 6.17145 6.05629 6.39941 6.00977L6.60059 5.99023C6.82855 5.94371 7 5.74171 7 5.5V3C7 1.89543 6.10457 1 5 1H3C1.89543 1 1 1.89543 1 3V5C1 6.10457 1.89543 7 3 7H4.5C4.74171 7 4.94371 7.17145 4.99023 7.39941L5.00977 7.60059C5.05629 7.82855 5.25829 8 5.5 8H0V0H8V8Z" fill="FGCOLOR"/>
<path d="M4 2C4.55228 2 5 2.44772 5 3V4.5C5 4.74171 4.82855 4.94371 4.60059 4.99023L4.39941 5.00977C4.20392 5.04966 4.04966 5.20392 4.00977 5.39941L3.99023 5.60059C3.94371 5.82855 3.74171 6 3.5 6C3.22386 6 3 5.77614 3 5.5V3C3 2.44772 3.44772 2 4 2Z" fill="FGCOLOR"/>
</g>
<defs>
<clipPath id="clip0_6_3127">
<rect width="8" height="8" fill="white"/>
</clipPath>
</defs>
</svg>
