<svg width="8" height="8" viewBox="0 0 8 8" fill="none" xmlns="http://www.w3.org/2000/svg">
<g clip-path="url(#clip0_6_3115)">
<path d="M6.5 0C6.25829 0 6.05629 0.171449 6.00977 0.399414L5.99023 0.600586C5.94371 0.828554 5.74171 1 5.5 1H2C1.44772 1 1 1.44772 1 2V2.5C1 2.77614 1.22386 3 1.5 3C1.74171 3 1.94371 2.82855 1.99023 2.60059L2.00977 2.39941C2.05629 2.17145 2.25829 2 2.5 2C2.77614 2 3 2.22386 3 2.5V5.5C3 5.74171 2.82855 5.94371 2.60059 5.99023L2.39941 6.00977C2.17145 6.05629 2 6.25829 2 6.5C2 6.77614 2.22386 7 2.5 7H3.5C4.32843 7 5 6.32843 5 5.5V3C5 2.48232 5.39333 2.05621 5.89746 2.00488L6.10254 1.99512C6.60667 1.94378 7 1.51768 7 1V0.5C7 0.258288 6.82855 0.0562933 6.60059 0.00976562L6.5 0H8V8H0V0H6.5Z" fill="FGCOLOR"/>
</g>
<defs>
<clipPath id="clip0_6_3115">
<rect width="8" height="8" fill="white"/>
</clipPath>
</defs>
</svg>
