<svg width="8" height="8" viewBox="0 0 8 8" fill="none" xmlns="http://www.w3.org/2000/svg">
<g clip-path="url(#clip0_6_3107)">
<path fill-rule="evenodd" clip-rule="evenodd" d="M8 8H0V0H8V8ZM4.5 1C4.25829 1 4.05629 1.17145 4.00977 1.39941L3.99023 1.60059C3.94371 1.82855 3.74171 2 3.5 2H2.5C2.25829 2 2.05629 2.17145 2.00977 2.39941L1.99023 2.60059C1.95034 2.79608 1.79608 2.95034 1.60059 2.99023L1.39941 3.00977C1.17145 3.05629 1 3.25829 1 3.5V4.5C1 4.74171 1.17145 4.94371 1.39941 4.99023L1.60059 5.00977C1.79608 5.04966 1.95034 5.20392 1.99023 5.39941L2.00977 5.60059C2.05629 5.82855 2.25829 6 2.5 6H3.5C3.74171 6 3.94371 6.17145 3.99023 6.39941L4.00977 6.60059C4.05629 6.82855 4.25829 7 4.5 7H6.5C6.77614 7 7 6.77614 7 6.5C7 6.22386 6.77614 6 6.5 6H5.5C5.25829 6 5.05629 5.82855 5.00977 5.60059L4.99023 5.39941C4.94371 5.17145 4.74171 5 4.5 5H4C3.44772 5 3 4.55228 3 4C3 3.44772 3.44772 3 4 3H4.5C4.74171 3 4.94371 2.82855 4.99023 2.60059L5.00977 2.39941C5.05629 2.17145 5.25829 2 5.5 2H6.5C6.77614 2 7 1.77614 7 1.5C7 1.22386 6.77614 1 6.5 1H4.5Z" fill="FGCOLOR"/>
</g>
<defs>
<clipPath id="clip0_6_3107">
<rect width="8" height="8" fill="white"/>
</clipPath>
</defs>
</svg>
