<svg width="8" height="8" viewBox="0 0 8 8" fill="none" xmlns="http://www.w3.org/2000/svg">
<g clip-path="url(#clip0_6_3103)">
<path fill-rule="evenodd" clip-rule="evenodd" d="M8 8H0V0H8V8ZM1.5 1C1.22386 1 1 1.22386 1 1.5C1 1.77614 1.22386 2 1.5 2H2.5C2.74171 2 2.94371 2.17145 2.99023 2.39941L3.00977 2.60059C3.05629 2.82855 3.25829 3 3.5 3H4C4.55228 3 5 3.44772 5 4C5 4.55228 4.55228 5 4 5H3.5C3.25829 5 3.05629 5.17145 3.00977 5.39941L2.99023 5.60059C2.94371 5.82855 2.74171 6 2.5 6H1.5C1.22386 6 1 6.22386 1 6.5C1 6.77614 1.22386 7 1.5 7H3.5C3.74171 7 3.94371 6.82855 3.99023 6.60059L4.00977 6.39941C4.05629 6.17145 4.25829 6 4.5 6H5.5C5.74171 6 5.94371 5.82855 5.99023 5.60059L6.00977 5.39941C6.04966 5.20392 6.20392 5.04966 6.39941 5.00977L6.60059 4.99023C6.82855 4.94371 7 4.74171 7 4.5V3.5C7 3.25829 6.82855 3.05629 6.60059 3.00977L6.39941 2.99023C6.20392 2.95034 6.04966 2.79608 6.00977 2.60059L5.99023 2.39941C5.94371 2.17145 5.74171 2 5.5 2H4.5C4.25829 2 4.05629 1.82855 4.00977 1.60059L3.99023 1.39941C3.94371 1.17145 3.74171 1 3.5 1H1.5Z" fill="FGCOLOR"/>
</g>
<defs>
<clipPath id="clip0_6_3103">
<rect width="8" height="8" fill="white"/>
</clipPath>
</defs>
</svg>
