<svg width="8" height="8" viewBox="0 0 8 8" fill="none" xmlns="http://www.w3.org/2000/svg">
<g clip-path="url(#clip0_6_3099)">
<path d="M8 8H3.5C4.32843 8 5 7.32843 5 6.5V4.5C5 4.22386 5.22386 4 5.5 4C5.74171 4 5.94371 4.17145 5.99023 4.39941L6.00977 4.60059C6.05629 4.82855 6.25829 5 6.5 5C6.77614 5 7 4.77614 7 4.5V3.5C7 3.25829 6.82855 3.05629 6.60059 3.00977L6.39941 2.99023C6.20392 2.95034 6.04966 2.79608 6.00977 2.60059L5.99023 2.39941C5.95034 2.20392 5.79608 2.04966 5.60059 2.00977L5.39941 1.99023C5.20392 1.95034 5.04966 1.79608 5.00977 1.60059L4.99023 1.39941C4.94371 1.17145 4.74171 1 4.5 1H3.5C3.25829 1 3.05629 1.17145 3.00977 1.39941L2.99023 1.60059C2.95034 1.79608 2.79608 1.95034 2.60059 1.99023L2.39941 2.00977C2.20392 2.04966 2.04966 2.20392 2.00977 2.39941L1.99023 2.60059C1.95034 2.79608 1.79608 2.95034 1.60059 2.99023L1.39941 3.00977C1.17145 3.05629 1 3.25829 1 3.5V4.5C1 4.77614 1.22386 5 1.5 5C1.74171 5 1.94371 4.82855 1.99023 4.60059L2.00977 4.39941C2.05629 4.17145 2.25829 4 2.5 4C2.77614 4 3 4.22386 3 4.5V6.5C3 6.74171 2.82855 6.94371 2.60059 6.99023L2.39941 7.00977C2.17145 7.05629 2 7.25829 2 7.5C2 7.77614 2.22386 8 2.5 8H0V0H8V8Z" fill="FGCOLOR"/>
</g>
<defs>
<clipPath id="clip0_6_3099">
<rect width="8" height="8" fill="white"/>
</clipPath>
</defs>
</svg>
