<svg width="8" height="8" viewBox="0 0 8 8" fill="none" xmlns="http://www.w3.org/2000/svg">
<g clip-path="url(#clip0_6_3095)">
<path d="M8 2.5C8 2.22386 7.77614 2 7.5 2C7.25829 2 7.05629 2.17145 7.00977 2.39941L6.99023 2.60059C6.94371 2.82855 6.74171 3 6.5 3H4.5C4.22386 3 4 2.77614 4 2.5C4 2.25829 4.17145 2.05629 4.39941 2.00977L4.60059 1.99023C4.82855 1.94371 5 1.74171 5 1.5C5 1.22386 4.77614 1 4.5 1H3.5C3.25829 1 3.05629 1.17145 3.00977 1.39941L2.99023 1.60059C2.95034 1.79608 2.79608 1.95034 2.60059 1.99023L2.39941 2.00977C2.20392 2.04966 2.04966 2.20392 2.00977 2.39941L1.99023 2.60059C1.95034 2.79608 1.79608 2.95034 1.60059 2.99023L1.39941 3.00977C1.17145 3.05629 1 3.25829 1 3.5V4.5C1 4.74171 1.17145 4.94371 1.39941 4.99023L1.60059 5.00977C1.79608 5.04966 1.95034 5.20392 1.99023 5.39941L2.00977 5.60059C2.04966 5.79608 2.20392 5.95034 2.39941 5.99023L2.60059 6.00977C2.79608 6.04966 2.95034 6.20392 2.99023 6.39941L3.00977 6.60059C3.05629 6.82855 3.25829 7 3.5 7H4.5C4.77614 7 5 6.77614 5 6.5C5 6.25829 4.82855 6.05629 4.60059 6.00977L4.39941 5.99023C4.17145 5.94371 4 5.74171 4 5.5C4 5.22386 4.22386 5 4.5 5H6.5C7.32843 5 8 4.32843 8 3.5V8H0V0H8V2.5Z" fill="FGCOLOR"/>
</g>
<defs>
<clipPath id="clip0_6_3095">
<rect width="8" height="8" fill="white"/>
</clipPath>
</defs>
</svg>
