<svg width="8" height="8" viewBox="0 0 8 8" fill="none" xmlns="http://www.w3.org/2000/svg">
<g clip-path="url(#clip0_6_3091)">
<path fill-rule="evenodd" clip-rule="evenodd" d="M8 8H0V0H8V8ZM4 2C3.48232 2 3.05621 2.39333 3.00488 2.89746L2.99512 3.10254C2.94379 3.60667 2.51768 4 2 4H1.5C1.22386 4 1 4.22386 1 4.5C1 4.77614 1.22386 5 1.5 5H2.5C2.77614 5 3 5.22386 3 5.5C3 5.74171 2.82855 5.94371 2.60059 5.99023L2.39941 6.00977C2.17145 6.05629 2 6.25829 2 6.5C2 6.77614 2.22386 7 2.5 7H4C4.51768 7 4.94379 6.60667 4.99512 6.10254L5.00488 5.89746C5.05621 5.39333 5.48232 5 6 5H6.5C6.77614 5 7 4.77614 7 4.5C7 4.22386 6.77614 4 6.5 4H5.5C5.22386 4 5 3.77614 5 3.5C5 3.25829 5.17145 3.05629 5.39941 3.00977L5.60059 2.99023C5.82855 2.94371 6 2.74171 6 2.5C6 2.22386 5.77614 2 5.5 2H4Z" fill="FGCOLOR"/>
</g>
<defs>
<clipPath id="clip0_6_3091">
<rect width="8" height="8" fill="white"/>
</clipPath>
</defs>
</svg>
