<svg width="8" height="8" viewBox="0 0 8 8" fill="none" xmlns="http://www.w3.org/2000/svg">
<g clip-path="url(#clip0_6_3087)">
<path fill-rule="evenodd" clip-rule="evenodd" d="M8 8H0V0H8V8ZM5.5 2C5.25829 2 5.05629 2.17145 5.00977 2.39941L4.99023 2.60059C4.94371 2.82855 4.74171 3 4.5 3H3.5C3.25829 3 3.05629 2.82855 3.00977 2.60059L2.99023 2.39941C2.94371 2.17145 2.74171 2 2.5 2C2.22386 2 2 2.22386 2 2.5C2 2.74171 2.17145 2.94371 2.39941 2.99023L2.60059 3.00977C2.82855 3.05629 3 3.25829 3 3.5L2.99023 3.60059C2.94356 3.82836 2.74158 4 2.5 4H1.5C1.22386 4 1 4.22386 1 4.5C1.00022 4.77595 1.22399 5 1.5 5H2.5C2.60339 5 2.69957 5.0312 2.7793 5.08496C2.88597 5.15696 2.9637 5.26887 2.99023 5.39941C2.99686 5.43189 3 5.46557 3 5.5C3 5.74171 2.82855 5.94371 2.60059 5.99023L2.39941 6.00977C2.17145 6.05629 2 6.25829 2 6.5C2 6.77614 2.22386 7 2.5 7C2.74171 7 2.94371 6.82855 2.99023 6.60059L3.00977 6.39941C3.05629 6.17145 3.25829 6 3.5 6H4.5C4.74171 6 4.94371 6.17145 4.99023 6.39941L5.00977 6.60059C5.05629 6.82855 5.25829 7 5.5 7C5.77614 7 6 6.77614 6 6.5C6 6.25829 5.82855 6.05629 5.60059 6.00977L5.39941 5.99023C5.17145 5.94371 5 5.74171 5 5.5C5 5.46557 5.00314 5.43189 5.00977 5.39941C5.0363 5.26887 5.11403 5.15696 5.2207 5.08496C5.30043 5.0312 5.39661 5 5.5 5H6.5C6.77601 5 6.99978 4.77595 7 4.5C7 4.22386 6.77614 4 6.5 4H5.5C5.25843 4 5.05644 3.82836 5.00977 3.60059L5 3.5C5 3.25829 5.17145 3.05629 5.39941 3.00977L5.60059 2.99023C5.82855 2.94371 6 2.74171 6 2.5C6 2.22386 5.77614 2 5.5 2Z" fill="FGCOLOR"/>
</g>
<defs>
<clipPath id="clip0_6_3087">
<rect width="8" height="8" fill="white"/>
</clipPath>
</defs>
</svg>
