<svg width="8" height="8" viewBox="0 0 8 8" fill="none" xmlns="http://www.w3.org/2000/svg">
<g clip-path="url(#clip0_6_3083)">
<path fill-rule="evenodd" clip-rule="evenodd" d="M8 8H0V0H8V8ZM6.5 1C6.25829 1 6.05629 1.17145 6.00977 1.39941L5.99023 1.60059C5.95034 1.79608 5.79608 1.95034 5.60059 1.99023L5.39941 2.00977C5.20392 2.04966 5.04966 2.20392 5.00977 2.39941L4.99023 2.60059C4.95034 2.79608 4.79608 2.95034 4.60059 2.99023L4.39941 3.00977C4.20392 3.04966 4.04966 3.20392 4.00977 3.39941L3.99023 3.60059C3.95034 3.79608 3.79608 3.95034 3.60059 3.99023L3.39941 4.00977C3.20392 4.04966 3.04966 4.20392 3.00977 4.39941L2.99023 4.60059C2.95034 4.79608 2.79608 4.95034 2.60059 4.99023L2.39941 5.00977C2.20392 5.04966 2.04966 5.20392 2.00977 5.39941L1.99023 5.60059C1.95034 5.79608 1.79608 5.95034 1.60059 5.99023L1.39941 6.00977C1.17145 6.05629 1 6.25829 1 6.5C1 6.77614 1.22386 7 1.5 7H2.5C2.74171 7 2.94371 6.82855 2.99023 6.60059L3.00977 6.39941C3.04966 6.20392 3.20392 6.04966 3.39941 6.00977L3.60059 5.99023C3.79608 5.95034 3.95034 5.79608 3.99023 5.60059L4.00977 5.39941C4.04966 5.20392 4.20392 5.04966 4.39941 5.00977L4.60059 4.99023C4.79608 4.95034 4.95034 4.79608 4.99023 4.60059L5.00977 4.39941C5.04966 4.20392 5.20392 4.04966 5.39941 4.00977L5.60059 3.99023C5.79608 3.95034 5.95034 3.79608 5.99023 3.60059L6.00977 3.39941C6.04966 3.20392 6.20392 3.04966 6.39941 3.00977L6.60059 2.99023C6.82855 2.94371 7 2.74171 7 2.5V1.5C7 1.22386 6.77614 1 6.5 1Z" fill="FGCOLOR"/>
</g>
<defs>
<clipPath id="clip0_6_3083">
<rect width="8" height="8" fill="white"/>
</clipPath>
</defs>
</svg>
