<svg width="8" height="8" viewBox="0 0 8 8" fill="none" xmlns="http://www.w3.org/2000/svg">
<g clip-path="url(#clip0_6_3079)">
<path fill-rule="evenodd" clip-rule="evenodd" d="M8 8H0V0H8V8ZM2.5 5C2.22386 5 2 5.22386 2 5.5C2 5.77614 2.22386 6 2.5 6H5.5C5.77614 6 6 5.77614 6 5.5C6 5.22386 5.77614 5 5.5 5H2.5ZM2.5 3C2.22386 3 2 3.22386 2 3.5C2 3.77614 2.22386 4 2.5 4H5.5C5.77614 4 6 3.77614 6 3.5C6 3.22386 5.77614 3 5.5 3H2.5Z" fill="FGCOLOR"/>
</g>
<defs>
<clipPath id="clip0_6_3079">
<rect width="8" height="8" fill="white"/>
</clipPath>
</defs>
</svg>
