<svg width="8" height="8" viewBox="0 0 8 8" fill="none" xmlns="http://www.w3.org/2000/svg">
<g clip-path="url(#clip0_6_3071)">
<path fill-rule="evenodd" clip-rule="evenodd" d="M8 8H0V0H8V8ZM2.5 1C1.67157 1 1 1.67157 1 2.5V4.5C1 4.74171 1.17145 4.94371 1.39941 4.99023L1.60059 5.00977C1.79608 5.04966 1.95034 5.20392 1.99023 5.39941L2.00977 5.60059C2.04966 5.79608 2.20392 5.95034 2.39941 5.99023L2.60059 6.00977C2.79608 6.04966 2.95034 6.20392 2.99023 6.39941L3.00977 6.60059C3.05629 6.82855 3.25829 7 3.5 7H4.5C4.74171 7 4.94371 6.82855 4.99023 6.60059L5.00977 6.39941C5.04966 6.20392 5.20392 6.04966 5.39941 6.00977L5.60059 5.99023C5.79608 5.95034 5.95034 5.79608 5.99023 5.60059L6.00977 5.39941C6.04966 5.20392 6.20392 5.04966 6.39941 5.00977L6.60059 4.99023C6.82855 4.94371 7 4.74171 7 4.5V2.5C7 2.25829 7.17145 2.05629 7.39941 2.00977L7.60059 1.99023C7.82855 1.94371 8 1.74171 8 1.5C8 1.22386 7.77614 1 7.5 1H6.5C5.67157 1 5 1.67157 5 2.5V4C5 4.55228 4.55228 5 4 5C3.44772 5 3 4.55228 3 4V2.5C3 2.25829 3.17145 2.05629 3.39941 2.00977L3.60059 1.99023C3.82855 1.94371 4 1.74171 4 1.5C4 1.22386 3.77614 1 3.5 1H2.5Z" fill="FGCOLOR"/>
</g>
<defs>
<clipPath id="clip0_6_3071">
<rect width="8" height="8" fill="white"/>
</clipPath>
</defs>
</svg>
