<svg width="8" height="8" viewBox="0 0 8 8" fill="none" xmlns="http://www.w3.org/2000/svg">
<g clip-path="url(#clip0_6_3067)">
<path d="M8 2C8 1.44772 7.55228 1 7 1C6.44772 1 6 1.44772 6 2V3.5C6 3.77614 5.77614 4 5.5 4C5.25829 4 5.05629 3.82855 5.00977 3.60059L4.99023 3.39941C4.94371 3.17145 4.74171 3 4.5 3C4.25829 3 4.05629 3.17145 4.00977 3.39941L3.99023 3.60059C3.94371 3.82855 3.74171 4 3.5 4C3.22386 4 3 3.77614 3 3.5V2.5C3 2.25829 3.17145 2.05629 3.39941 2.00977L3.60059 1.99023C3.82855 1.94371 4 1.74171 4 1.5C4 1.22386 3.77614 1 3.5 1H2.5C1.67157 1 1 1.67157 1 2.5V6C1 6.55228 1.44772 7 2 7H2.5C2.74171 7 2.94371 6.82855 2.99023 6.60059L3.00977 6.39941C3.04966 6.20392 3.20392 6.04966 3.39941 6.00977L3.60059 5.99023C3.79608 5.95034 3.95034 5.79608 3.99023 5.60059L4.00977 5.39941C4.05629 5.17145 4.25829 5 4.5 5C4.74171 5 4.94371 5.17145 4.99023 5.39941L5.00977 5.60059C5.04966 5.79608 5.20392 5.95034 5.39941 5.99023L5.60059 6.00977C5.79608 6.04966 5.95034 6.20392 5.99023 6.39941L6.00977 6.60059C6.05629 6.82855 6.25829 7 6.5 7H7C7.55228 7 8 6.55228 8 6V8H0V0H8V2Z" fill="FGCOLOR"/>
</g>
<defs>
<clipPath id="clip0_6_3067">
<rect width="8" height="8" fill="white"/>
</clipPath>
</defs>
</svg>
