<svg width="8" height="8" viewBox="0 0 8 8" fill="none" xmlns="http://www.w3.org/2000/svg">
<g clip-path="url(#clip0_6_3063)">
<path fill-rule="evenodd" clip-rule="evenodd" d="M8 8H0V0H8V8ZM2.5 1C1.67157 1 1 1.67157 1 2.5V3C1 3.55228 1.44772 4 2 4H2.5C2.77614 4 3 4.22386 3 4.5C3 4.77614 2.77614 5 2.5 5H2C1.44772 5 1 5.44772 1 6C1 6.55228 1.44772 7 2 7H2.5C2.74171 7 2.94371 6.82855 2.99023 6.60059L3.00977 6.39941C3.05629 6.17145 3.25829 6 3.5 6H4.5C4.74171 6 4.94371 6.17145 4.99023 6.39941L5.00977 6.60059C5.05629 6.82855 5.25829 7 5.5 7H6C6.55228 7 7 6.55228 7 6C7 5.44772 6.55228 5 6 5H5.5C5.22386 5 5 4.77614 5 4.5C5 4.22386 5.22386 4 5.5 4H6C6.55228 4 7 3.55228 7 3V2.5C7 2.25829 7.17145 2.05629 7.39941 2.00977L7.60059 1.99023C7.82855 1.94371 8 1.74171 8 1.5C8 1.22386 7.77614 1 7.5 1H6C5.48232 1 5.05621 1.39333 5.00488 1.89746L4.99512 2.10254C4.94379 2.60667 4.51768 3 4 3H3.5C3.22386 3 3 2.77614 3 2.5C3 2.25829 3.17145 2.05629 3.39941 2.00977L3.60059 1.99023C3.82855 1.94371 4 1.74171 4 1.5C4 1.22386 3.77614 1 3.5 1H2.5Z" fill="FGCOLOR"/>
</g>
<defs>
<clipPath id="clip0_6_3063">
<rect width="8" height="8" fill="white"/>
</clipPath>
</defs>
</svg>
