<svg width="8" height="8" viewBox="0 0 8 8" fill="none" xmlns="http://www.w3.org/2000/svg">
<g clip-path="url(#clip0_6_3059)">
<path d="M8 8H1.5C1.74171 8 1.94371 7.82855 1.99023 7.60059L2.00977 7.39941C2.05629 7.17145 2.25829 7 2.5 7H5C6.10457 7 7 6.10457 7 5V2.5C7 2.25829 7.17145 2.05629 7.39941 2.00977L7.60059 1.99023C7.82855 1.94371 8 1.74171 8 1.5C8 1.22386 7.77614 1 7.5 1H6.5C5.67157 1 5 1.67157 5 2.5V3C5 3.55228 4.55228 4 4 4C3.44772 4 3 3.55228 3 3V2.5C3 2.25829 3.17145 2.05629 3.39941 2.00977L3.60059 1.99023C3.82855 1.94371 4 1.74171 4 1.5C4 1.22386 3.77614 1 3.5 1H2.5C1.67157 1 1 1.67157 1 2.5V3C1 4.10457 1.89543 5 3 5H4.5C4.77614 5 5 5.22386 5 5.5C5 5.77614 4.77614 6 4.5 6H2C1.44772 6 1 6.44772 1 7V7.5C1 7.77614 1.22386 8 1.5 8H0V0H8V8Z" fill="FGCOLOR"/>
</g>
<defs>
<clipPath id="clip0_6_3059">
<rect width="8" height="8" fill="white"/>
</clipPath>
</defs>
</svg>
