<svg width="8" height="8" viewBox="0 0 8 8" fill="none" xmlns="http://www.w3.org/2000/svg">
<g clip-path="url(#clip0_6_3048)">
<path d="M1.5 0C1.22386 0 1 0.223858 1 0.5V6C1 6.55228 1.44772 7 2 7H2.5C2.77614 7 3 6.77614 3 6.5C3 6.25829 2.82855 6.05629 2.60059 6.00977L2.39941 5.99023C2.17145 5.94371 2 5.74171 2 5.5V0.5C2 0.223858 1.77614 0 1.5 0H3.5C3.22386 0 3 0.223858 3 0.5V2.5C3 2.74171 3.17145 2.94371 3.39941 2.99023L3.60059 3.00977C3.82855 3.05629 4 3.25829 4 3.5V6.5C4 6.77614 4.22386 7 4.5 7C4.77614 7 5 6.77614 5 6.5V2.5C5 2.25829 4.82855 2.05629 4.60059 2.00977L4.39941 1.99023C4.17145 1.94371 4 1.74171 4 1.5V0.5C4 0.223858 3.77614 0 3.5 0H8V4.5C8 4.25829 7.82855 4.05629 7.60059 4.00977L7.39941 3.99023C7.17145 3.94371 7 3.74171 7 3.5C7 3.25829 7.17145 3.05629 7.39941 3.00977L7.60059 2.99023C7.82855 2.94371 8 2.74171 8 2.5C8 2.22386 7.77614 2 7.5 2H7C6.44772 2 6 2.44772 6 3V4.5C6 4.74171 6.17145 4.94371 6.39941 4.99023L6.60059 5.00977C6.82855 5.05629 7 5.25829 7 5.5C7 5.74171 6.82855 5.94371 6.60059 5.99023L6.39941 6.00977C6.17145 6.05629 6 6.25829 6 6.5C6 6.77614 6.22386 7 6.5 7H7C7.55228 7 8 6.55228 8 6V8H0V0H1.5Z" fill="FGCOLOR"/>
</g>
<defs>
<clipPath id="clip0_6_3048">
<rect width="8" height="8" fill="white"/>
</clipPath>
</defs>
</svg>
