<svg width="8" height="8" viewBox="0 0 8 8" fill="none" xmlns="http://www.w3.org/2000/svg">
<g clip-path="url(#clip0_6_3044)">
<path d="M5 0C4.44772 0 4 0.447715 4 1V1.5C4 1.74171 3.82855 1.94371 3.60059 1.99023L3.39941 2.00977C3.17145 2.05629 3 2.25829 3 2.5C3 2.77614 3.22386 3 3.5 3H4.5C4.74171 3 4.94371 2.82855 4.99023 2.60059L5.00977 2.39941C5.04966 2.20392 5.20392 2.04966 5.39941 2.00977L5.60059 1.99023C5.82855 1.94371 6 1.74171 6 1.5V1C6 0.447715 5.55228 0 5 0H8V8H0V0H5Z" fill="FGCOLOR"/>
</g>
<defs>
<clipPath id="clip0_6_3044">
<rect width="8" height="8" fill="white"/>
</clipPath>
</defs>
</svg>
