<svg width="8" height="8" viewBox="0 0 8 8" fill="none" xmlns="http://www.w3.org/2000/svg">
<g clip-path="url(#clip0_6_3040)">
<path d="M3 0C2.44772 0 2 0.447715 2 1V1.5C2 1.74171 1.82855 1.94371 1.60059 1.99023L1.39941 2.00977C1.17145 2.05629 1 2.25829 1 2.5C1 2.77614 1.22386 3 1.5 3H2.5C2.74171 3 2.94371 2.82855 2.99023 2.60059L3.00977 2.39941C3.04966 2.20392 3.20392 2.04966 3.39941 2.00977L3.60059 1.99023C3.82855 1.94371 4 1.74171 4 1.5V1C4 0.447715 3.55228 0 3 0H6C5.44772 0 5 0.447715 5 1V1.5C5 1.74171 4.82855 1.94371 4.60059 1.99023L4.39941 2.00977C4.17145 2.05629 4 2.25829 4 2.5C4 2.77614 4.22386 3 4.5 3H5.5C5.74171 3 5.94371 2.82855 5.99023 2.60059L6.00977 2.39941C6.04966 2.20392 6.20392 2.04966 6.39941 2.00977L6.60059 1.99023C6.82855 1.94371 7 1.74171 7 1.5V1C7 0.447715 6.55228 0 6 0H8V8H0V0H3Z" fill="FGCOLOR"/>
</g>
<defs>
<clipPath id="clip0_6_3040">
<rect width="8" height="8" fill="white"/>
</clipPath>
</defs>
</svg>
