<svg width="8" height="8" viewBox="0 0 8 8" fill="none" xmlns="http://www.w3.org/2000/svg">
<g clip-path="url(#clip0_6_3036)">
<path fill-rule="evenodd" clip-rule="evenodd" d="M8 8H0V0H4.5C3.67157 0 3 0.671573 3 1.5V2.5C3 2.74171 2.82855 2.94371 2.60059 2.99023L2.39941 3.00977C2.17145 3.05629 2 3.25829 2 3.5C2 3.77614 2.22386 4 2.5 4H3.5C4.32843 4 5 3.32843 5 2.5V1.5C5 1.25829 5.17145 1.05629 5.39941 1.00977L5.60059 0.990234C5.82855 0.943708 6 0.741713 6 0.5C6 0.223858 5.77614 3.2213e-08 5.5 0H8V8ZM4 5C3.44772 5 3 5.44772 3 6C3 6.55228 3.44772 7 4 7C4.55228 7 5 6.55228 5 6C5 5.44772 4.55228 5 4 5Z" fill="FGCOLOR"/>
</g>
<defs>
<clipPath id="clip0_6_3036">
<rect width="8" height="8" fill="white"/>
</clipPath>
</defs>
</svg>
