<svg width="8" height="8" viewBox="0 0 8 8" fill="none" xmlns="http://www.w3.org/2000/svg">
<g clip-path="url(#clip0_6_3032)">
<path fill-rule="evenodd" clip-rule="evenodd" d="M8 8H0V0H2C1.44772 1.61065e-08 1 0.447715 1 1C1 1.55228 1.44772 2 2 2H2.5C2.74171 2 2.94371 1.82855 2.99023 1.60059L3.00977 1.39941C3.05629 1.17145 3.25829 1 3.5 1H4C4.55228 1 5 1.44772 5 2C5 2.55228 4.55228 3 4 3H3.5C3.22386 3 3 3.22386 3 3.5C3 3.77614 3.22386 4 3.5 4H5.5C5.74171 4 5.94371 3.82855 5.99023 3.60059L6.00977 3.39941C6.04966 3.20392 6.20392 3.04966 6.39941 3.00977L6.60059 2.99023C6.82855 2.94371 7 2.74171 7 2.5V1.5C7 0.671573 6.32843 0 5.5 0H8V8ZM4 5C3.44772 5 3 5.44772 3 6C3 6.55228 3.44772 7 4 7C4.55228 7 5 6.55228 5 6C5 5.44772 4.55228 5 4 5Z" fill="FGCOLOR"/>
</g>
<defs>
<clipPath id="clip0_6_3032">
<rect width="8" height="8" fill="white"/>
</clipPath>
</defs>
</svg>
