<svg width="8" height="8" viewBox="0 0 8 8" fill="none" xmlns="http://www.w3.org/2000/svg">
<path d="M4 1.5C4 1.77614 3.77614 2 3.5 2C3.22386 2 3 2.22386 3 2.5V3.5C3 3.77614 3.22386 4 3.5 4C3.77614 4 4 3.77614 4 3.5C4 3.22386 4.22386 3 4.5 3C4.77614 3 5 2.77614 5 2.5V2C5 1.44772 5.44772 1 6 1H6.5C6.77614 1 7 1.22386 7 1.5C7 1.77614 6.77614 2 6.5 2C6.22386 2 6 2.22386 6 2.5V3.5C6 3.77614 5.77614 4 5.5 4C5.22386 4 5 4.22386 5 4.5C5 4.77614 5.22386 5 5.5 5C5.77614 5 6 5.22386 6 5.5C6 5.77614 6.22386 6 6.5 6C6.77614 6 7 6.22386 7 6.5C7 6.77614 6.77614 7 6.5 7H5.5C5.22386 7 5 6.77614 5 6.5C5 6.22386 4.77614 6 4.5 6C4.22386 6 4 5.77614 4 5.5C4 5.22386 3.77614 5 3.5 5C3.22386 5 3 5.22386 3 5.5V6C3 6.55228 2.55228 7 2 7H0.5C0.223858 7 0 6.77614 0 6.5C0 6.22386 0.223858 6 0.5 6C0.776142 6 1 5.77614 1 5.5V2.5C1 1.67157 1.67157 1 2.5 1H3.5C3.77614 1 4 1.22386 4 1.5Z" fill="FGCOLOR"/>
</svg>
