<svg width="8" height="8" viewBox="0 0 8 8" fill="none" xmlns="http://www.w3.org/2000/svg">
<g clip-path="url(#clip0_6_3016)">
<path fill-rule="evenodd" clip-rule="evenodd" d="M8 8H0V0H8V8ZM4 5C3.44772 5 3 5.44772 3 6C3 6.55228 3.44772 7 4 7C4.55228 7 5 6.55228 5 6C5 5.44772 4.55228 5 4 5ZM4 2C3.44772 2 3 2.44772 3 3C3 3.55228 3.44772 4 4 4C4.55228 4 5 3.55228 5 3C5 2.44772 4.55228 2 4 2Z" fill="FGCOLOR"/>
</g>
<defs>
<clipPath id="clip0_6_3016">
<rect width="8" height="8" fill="white"/>
</clipPath>
</defs>
</svg>
