<svg width="8" height="8" viewBox="0 0 8 8" fill="none" xmlns="http://www.w3.org/2000/svg">
<g clip-path="url(#clip0_6_3012)">
<path fill-rule="evenodd" clip-rule="evenodd" d="M8 8H3.5C3.74171 8 3.94371 7.82855 3.99023 7.60059L4.00977 7.39941C4.04966 7.20392 4.20392 7.04966 4.39941 7.00977L4.60059 6.99023C4.82855 6.94371 5 6.74171 5 6.5V6C5 5.44772 4.55228 5 4 5C3.44772 5 3 5.44772 3 6V6.5C3 6.74171 2.82855 6.94371 2.60059 6.99023L2.39941 7.00977C2.17145 7.05629 2 7.25829 2 7.5C2 7.77614 2.22386 8 2.5 8H0V0H8V8ZM4 2C3.44772 2 3 2.44772 3 3C3 3.55228 3.44772 4 4 4C4.55228 4 5 3.55228 5 3C5 2.44772 4.55228 2 4 2Z" fill="FGCOLOR"/>
</g>
<defs>
<clipPath id="clip0_6_3012">
<rect width="8" height="8" fill="white"/>
</clipPath>
</defs>
</svg>
