<svg width="8" height="8" viewBox="0 0 8 8" fill="none" xmlns="http://www.w3.org/2000/svg">
<g clip-path="url(#clip0_6_3008)">
<path d="M8 0C6.94943 -1.2574e-08 5.90908 0.207338 4.93848 0.609375C3.96795 1.01141 3.08559 1.59995 2.34277 2.34277C1.59995 3.08559 1.01141 3.96795 0.609375 4.93848C0.207337 5.90908 9.18442e-08 6.94942 0 8V0H8Z" fill="FGCOLOR"/>
<path d="M8 8H2C2 7.21209 2.15552 6.43204 2.45703 5.7041C2.75856 4.97615 3.20066 4.31496 3.75781 3.75781C4.31496 3.20066 4.97615 2.75856 5.7041 2.45703C6.43204 2.15552 7.21209 2 8 2V8Z" fill="FGCOLOR"/>
</g>
<defs>
<clipPath id="clip0_6_3008">
<rect width="8" height="8" fill="white"/>
</clipPath>
</defs>
</svg>
