<svg width="8" height="8" viewBox="0 0 8 8" fill="none" xmlns="http://www.w3.org/2000/svg">
<g clip-path="url(#clip0_6_3004)">
<path d="M0 2C0.787908 2 1.56796 2.15552 2.2959 2.45703C3.02385 2.75856 3.68504 3.20066 4.24219 3.75781C4.79934 4.31496 5.24144 4.97615 5.54297 5.7041C5.84448 6.43204 6 7.21209 6 8H0V2Z" fill="FGCOLOR"/>
<path d="M8 8C8 6.94942 7.79266 5.90908 7.39062 4.93848C6.98859 3.96795 6.40005 3.08559 5.65723 2.34277C4.91441 1.59995 4.03205 1.01141 3.06152 0.609375C2.09092 0.207338 1.05057 -1.2574e-08 0 0H8V8Z" fill="FGCOLOR"/>
</g>
<defs>
<clipPath id="clip0_6_3004">
<rect width="8" height="8" fill="white"/>
</clipPath>
</defs>
</svg>
