<svg width="8" height="8" viewBox="0 0 8 8" fill="none" xmlns="http://www.w3.org/2000/svg">
<g clip-path="url(#clip0_6_3000)">
<path d="M8 2C7.21209 2 6.43204 2.15552 5.7041 2.45703C4.97615 2.75856 4.31496 3.20066 3.75781 3.75781C3.20066 4.31496 2.75856 4.97615 2.45703 5.7041C2.15552 6.43204 2 7.21209 2 8H0V0H8V2Z" fill="FGCOLOR"/>
<path d="M8 8H4C4 7.47483 4.10376 6.95494 4.30469 6.46973C4.50571 5.98442 4.80044 5.54331 5.17188 5.17188C5.54331 4.80044 5.98442 4.50571 6.46973 4.30469C6.95494 4.10376 7.47483 4 8 4V8Z" fill="FGCOLOR"/>
</g>
<defs>
<clipPath id="clip0_6_3000">
<rect width="8" height="8" fill="white"/>
</clipPath>
</defs>
</svg>
