<svg width="8" height="8" viewBox="0 0 8 8" fill="none" xmlns="http://www.w3.org/2000/svg">
<g clip-path="url(#clip0_6_2996)">
<path d="M0 8H4C4 7.47483 3.89624 6.95494 3.69531 6.46973C3.49429 5.98442 3.19956 5.54331 2.82812 5.17188C2.45669 4.80044 2.01558 4.50571 1.53027 4.30469C1.04506 4.10376 0.525172 4 0 4V8Z" fill="FGCOLOR"/>
<path d="M0 0V2C0.787908 2 1.56796 2.15552 2.2959 2.45703C3.02385 2.75856 3.68504 3.20066 4.24219 3.75781C4.79934 4.31496 5.24144 4.97615 5.54297 5.7041C5.84448 6.43204 6 7.21209 6 8H8V0H0Z" fill="FGCOLOR"/>
</g>
<defs>
<clipPath id="clip0_6_2996">
<rect width="8" height="8" fill="white" transform="matrix(-1 0 0 1 8 0)"/>
</clipPath>
</defs>
</svg>
