<svg width="8" height="8" viewBox="0 0 8 8" fill="none" xmlns="http://www.w3.org/2000/svg">
<g clip-path="url(#clip0_6_2992)">
<path d="M8 4C7.47483 4 6.95494 4.10376 6.46973 4.30469C5.98442 4.50571 5.54331 4.80044 5.17188 5.17188C4.80044 5.54331 4.50571 5.98442 4.30469 6.46973C4.10376 6.95494 4 7.47483 4 8H0V0H8V4Z" fill="FGCOLOR"/>
<path d="M8 8H6C6 7.73736 6.05183 7.47703 6.15234 7.23438C6.25285 6.99183 6.40029 6.77159 6.58594 6.58594C6.77159 6.40029 6.99183 6.25285 7.23438 6.15234C7.47703 6.05183 7.73736 6 8 6V8Z" fill="FGCOLOR"/>
</g>
<defs>
<clipPath id="clip0_6_2992">
<rect width="8" height="8" fill="white"/>
</clipPath>
</defs>
</svg>
