<svg width="8" height="8" viewBox="0 0 8 8" fill="none" xmlns="http://www.w3.org/2000/svg">
<g clip-path="url(#clip0_6_2988)">
<path d="M0 6C0.262643 6 0.522974 6.05183 0.765625 6.15234C1.00818 6.25285 1.22841 6.40029 1.41406 6.58594C1.59971 6.77159 1.74715 6.99183 1.84766 7.23438C1.94817 7.47703 2 7.73736 2 8H0V6Z" fill="FGCOLOR"/>
<path d="M8 8H4C4 7.47483 3.89624 6.95494 3.69531 6.46973C3.49429 5.98442 3.19956 5.54331 2.82812 5.17188C2.45669 4.80044 2.01558 4.50571 1.53027 4.30469C1.04506 4.10376 0.525172 4 0 4V0H8V8Z" fill="FGCOLOR"/>
</g>
<defs>
<clipPath id="clip0_6_2988">
<rect width="8" height="8" fill="white"/>
</clipPath>
</defs>
</svg>
