<svg width="8" height="8" viewBox="0 0 8 8" fill="none" xmlns="http://www.w3.org/2000/svg">
<g clip-path="url(#clip0_6_2944)">
<path d="M0 0C9.18442e-08 1.05058 0.207337 2.09092 0.609375 3.06152C1.01141 4.03205 1.59995 4.91441 2.34277 5.65723C3.08559 6.40005 3.96795 6.98859 4.93848 7.39062C5.90908 7.79266 6.94943 8 8 8H0V0Z" fill="FGCOLOR"/>
<path d="M8 6C7.21209 6 6.43204 5.84448 5.7041 5.54297C4.97615 5.24144 4.31496 4.79934 3.75781 4.24219C3.20066 3.68504 2.75856 3.02385 2.45703 2.2959C2.15552 1.56796 2 0.787908 2 0H8V6Z" fill="FGCOLOR"/>
</g>
<defs>
<clipPath id="clip0_6_2944">
<rect width="8" height="8" fill="white"/>
</clipPath>
</defs>
</svg>
