<svg width="8" height="8" viewBox="0 0 8 8" fill="none" xmlns="http://www.w3.org/2000/svg">
<g clip-path="url(#clip0_6_2940)">
<path d="M6 0C6 0.787908 5.84448 1.56796 5.54297 2.2959C5.24144 3.02385 4.79934 3.68504 4.24219 4.24219C3.68504 4.79934 3.02385 5.24144 2.2959 5.54297C1.56796 5.84448 0.787908 6 0 6V0H6Z" fill="FGCOLOR"/>
<path d="M8 8H0C1.05057 8 2.09092 7.79266 3.06152 7.39062C4.03205 6.98859 4.91441 6.40005 5.65723 5.65723C6.40005 4.91441 6.98859 4.03205 7.39062 3.06152C7.79266 2.09092 8 1.05058 8 0V8Z" fill="FGCOLOR"/>
</g>
<defs>
<clipPath id="clip0_6_2940">
<rect width="8" height="8" fill="white"/>
</clipPath>
</defs>
</svg>
