<svg width="8" height="8" viewBox="0 0 8 8" fill="none" xmlns="http://www.w3.org/2000/svg">
<g clip-path="url(#clip0_6_2932)">
<path d="M0 6C0.787908 6 1.56796 5.84448 2.2959 5.54297C3.02385 5.24144 3.68504 4.79934 4.24219 4.24219C4.79934 3.68504 5.24144 3.02385 5.54297 2.2959C5.84448 1.56796 6 0.787908 6 0H8V8H0V6Z" fill="FGCOLOR"/>
<path d="M0 0H4C4 0.525172 3.89624 1.04506 3.69531 1.53027C3.49429 2.01558 3.19956 2.45669 2.82812 2.82812C2.45669 3.19956 2.01558 3.49429 1.53027 3.69531C1.04506 3.89624 0.525172 4 0 4V0Z" fill="FGCOLOR"/>
</g>
<defs>
<clipPath id="clip0_6_2932">
<rect width="8" height="8" fill="white" transform="matrix(-1 0 0 -1 8 8)"/>
</clipPath>
</defs>
</svg>
