<svg width="8" height="8" viewBox="0 0 8 8" fill="none" xmlns="http://www.w3.org/2000/svg">
<g clip-path="url(#clip0_6_2928)">
<path d="M4 0C4 0.525172 4.10376 1.04506 4.30469 1.53027C4.50571 2.01558 4.80044 2.45669 5.17188 2.82812C5.54331 3.19956 5.98442 3.49429 6.46973 3.69531C6.95494 3.89624 7.47483 4 8 4V8H0V0H4Z" fill="FGCOLOR"/>
<path d="M8 2C7.73736 2 7.47703 1.94817 7.23438 1.84766C6.99183 1.74715 6.77159 1.59971 6.58594 1.41406C6.40029 1.22841 6.25285 1.00818 6.15234 0.765625C6.05183 0.522974 6 0.262644 6 0H8V2Z" fill="FGCOLOR"/>
</g>
<defs>
<clipPath id="clip0_6_2928">
<rect width="8" height="8" fill="white"/>
</clipPath>
</defs>
</svg>
