<svg width="8" height="8" viewBox="0 0 8 8" fill="none" xmlns="http://www.w3.org/2000/svg">
<g clip-path="url(#clip0_6_2924)">
<path d="M2 0C2 0.262644 1.94817 0.522974 1.84766 0.765625C1.74715 1.00818 1.59971 1.22841 1.41406 1.41406C1.22841 1.59971 1.00818 1.74715 0.765625 1.84766C0.522974 1.94817 0.262643 2 0 2V0H2Z" fill="FGCOLOR"/>
<path d="M8 8H0V4C0.525172 4 1.04506 3.89624 1.53027 3.69531C2.01558 3.49429 2.45669 3.19956 2.82812 2.82812C3.19956 2.45669 3.49429 2.01558 3.69531 1.53027C3.89624 1.04506 4 0.525172 4 0H8V8Z" fill="FGCOLOR"/>
</g>
<defs>
<clipPath id="clip0_6_2924">
<rect width="8" height="8" fill="white"/>
</clipPath>
</defs>
</svg>
