<svg width="8" height="8" viewBox="0 0 8 8" fill="none" xmlns="http://www.w3.org/2000/svg">
<path d="M4 1.5C4 1.77614 3.77614 2 3.5 2C3.22386 2 3 2.22386 3 2.5C3 2.77614 3.22386 3 3.5 3C3.77614 3 4 3.22386 4 3.5C4 3.77614 4.22386 4 4.5 4C4.77614 4 5 3.77614 5 3.5V2.5C5 1.67157 5.67157 1 6.5 1H7.5C7.77614 1 8 1.22386 8 1.5C8 1.77614 7.77614 2 7.5 2C7.22386 2 7 2.22386 7 2.5V5.5C7 6.32843 6.32843 7 5.5 7H5C4.44772 7 4 6.55228 4 6V5.5C4 5.22386 3.77614 5 3.5 5C3.22386 5 3 5.22386 3 5.5V6C3 6.55228 2.55228 7 2 7H0.5C0.223858 7 0 6.77614 0 6.5C0 6.22386 0.223858 6 0.5 6C0.776142 6 1 5.77614 1 5.5V2.5C1 1.67157 1.67157 1 2.5 1H3.5C3.77614 1 4 1.22386 4 1.5Z" fill="FGCOLOR"/>
</svg>
