<svg width="8" height="8" viewBox="0 0 8 8" fill="none" xmlns="http://www.w3.org/2000/svg">
<g clip-path="url(#clip0_6_2780)">
<path fill-rule="evenodd" clip-rule="evenodd" d="M1 0C0.447715 0 0 0.447715 0 1C0 1.55228 0.447715 2 1 2C1.55228 2 2 1.55228 2 1C2 0.447715 1.55228 0 1 0H5C4.44772 0 4 0.447715 4 1C4 1.55228 4.44772 2 5 2C5.55228 2 6 1.55228 6 1C6 0.447715 5.55228 0 5 0H8V8H0V0H1ZM1 4C0.447715 4 0 4.44772 0 5C0 5.55228 0.447715 6 1 6C1.55228 6 2 5.55228 2 5C2 4.44772 1.55228 4 1 4ZM3 2C2.44772 2 2 2.44772 2 3C2 3.55228 2.44772 4 3 4C3.55228 4 4 3.55228 4 3C4 2.44772 3.55228 2 3 2Z" fill="FGCOLOR"/>
</g>
<defs>
<clipPath id="clip0_6_2780">
<rect width="8" height="8" fill="white"/>
</clipPath>
</defs>
</svg>
