<svg width="8" height="8" viewBox="0 0 8 8" fill="none" xmlns="http://www.w3.org/2000/svg">
<g clip-path="url(#clip0_6_2764)">
<path fill-rule="evenodd" clip-rule="evenodd" d="M0 3.49691e-07L4.37114e-08 1C1.95703e-08 0.447716 0.447715 3.30121e-07 1 3.0598e-07C1.55228 2.81839e-07 2 0.447715 2 1C2 1.55228 1.55228 2 1 2C0.447715 2 6.78525e-08 1.55229 4.37114e-08 1L2.18557e-07 5C1.94416e-07 4.44772 0.447715 4 1 4C1.55228 4 2 4.44772 2 5C2 5.55229 1.55228 6 1 6C0.447715 6 2.42698e-07 5.55229 2.18557e-07 5L3.49691e-07 8H8V0L0 3.49691e-07ZM4 7C4 7.55228 3.55228 8 3 8C2.44772 8 2 7.55229 2 7C2 6.44772 2.44772 6 3 6C3.55228 6 4 6.44772 4 7ZM4 3C4 3.55228 3.55228 4 3 4C2.44772 4 2 3.55228 2 3C2 2.44772 2.44772 2 3 2C3.55228 2 4 2.44772 4 3Z" fill="FGCOLOR"/>
</g>
<defs>
<clipPath id="clip0_6_2764">
<rect width="8" height="8" fill="white"/>
</clipPath>
</defs>
</svg>
