<svg width="8" height="8" viewBox="0 0 8 8" fill="none" xmlns="http://www.w3.org/2000/svg">
<g clip-path="url(#clip0_6_2760)">
<path fill-rule="evenodd" clip-rule="evenodd" d="M8 8V7C8 7.55229 7.55228 8 7 8C6.44772 8 6 7.55229 6 7C6 6.44772 6.44772 6 7 6C7.55229 6 8 6.44772 8 7L8 3C8 3.55229 7.55229 4 7 4C6.44772 4 6 3.55229 6 3C6 2.44772 6.44772 2 7 2C7.55229 2 8 2.44772 8 3V1.11257e-06L1.11257e-06 0L0 8L8 8ZM4 1C4 0.447716 4.44772 6.18548e-07 5 6.95355e-07C5.55229 7.72161e-07 6 0.447716 6 1C6 1.55229 5.55229 2 5 2C4.44772 2 4 1.55229 4 1ZM4 5C4 4.44772 4.44772 4 5 4C5.55229 4 6 4.44772 6 5C6 5.55229 5.55229 6 5 6C4.44772 6 4 5.55229 4 5Z" fill="FGCOLOR"/>
</g>
<defs>
<clipPath id="clip0_6_2760">
<rect width="8" height="8" fill="white"/>
</clipPath>
</defs>
</svg>
