<svg width="8" height="8" viewBox="0 0 8 8" fill="none" xmlns="http://www.w3.org/2000/svg">
<path d="M7 1C7 1.55228 6.55228 2 6 2H3.5C3.22386 2 3 2.22386 3 2.5C3 2.77614 3.22386 3 3.5 3H5C6.10457 3 7 3.89543 7 5C7 6.10457 6.10457 7 5 7H2C1.44772 7 1 6.55228 1 6V5.5C1 5.22386 1.22386 5 1.5 5C1.77614 5 2 5.22386 2 5.5C2 5.77614 2.22386 6 2.5 6H4C4.55228 6 5 5.55228 5 5C5 4.44772 4.55228 4 4 4H2.5C1.67157 4 1 3.32843 1 2.5C1 1.67157 1.67157 1 2.5 1H5.5C5.77614 1 6 0.776142 6 0.5C6 0.223858 6.22386 0 6.5 0C6.77614 0 7 0.223858 7 0.5V1Z" fill="FGCOLOR"/>
</svg>
