<svg width="8" height="8" viewBox="0 0 8 8" fill="none" xmlns="http://www.w3.org/2000/svg">
<path fill-rule="evenodd" clip-rule="evenodd" d="M6 1C6.55228 1 7 1.44772 7 2V2.5C7 2.77614 6.77614 3 6.5 3C6.22386 3 6 2.77614 6 2.5C6 2.22386 5.77614 2 5.5 2H4C3.44772 2 3 2.44772 3 3C3 3.55228 3.44772 4 4 4H5.5C6.32843 4 7 4.67157 7 5.5C7 6.32843 6.32843 7 5.5 7H3C1.89543 7 1 6.10457 1 5V3C1 1.89543 1.89543 1 3 1H6ZM3 5.5C3 5.77614 3.22386 6 3.5 6H4.5C4.77614 6 5 5.77614 5 5.5C5 5.22386 4.77614 5 4.5 5H3.5C3.22386 5 3 5.22386 3 5.5Z" fill="FGCOLOR"/>
</svg>
