<svg width="8" height="8" viewBox="0 0 8 8" fill="none" xmlns="http://www.w3.org/2000/svg">
<path d="M7 3C7 3.55228 6.55228 4 6 4C5.44772 4 5 4.44772 5 5V5.5C5 6.32843 4.32843 7 3.5 7H2.5C2.22386 7 2 6.77614 2 6.5C2 6.22386 2.22386 6 2.5 6C2.77614 6 3 5.77614 3 5.5V4.5C3 4.22386 3.22386 4 3.5 4C3.77614 4 4 3.77614 4 3.5C4 3.22386 4.22386 3 4.5 3C4.77614 3 5 2.77614 5 2.5C5 2.22386 4.77614 2 4.5 2H3.5C3.22386 2 3 2.22386 3 2.5C3 2.77614 2.77614 3 2.5 3H2C1.44772 3 1 2.55228 1 2C1 1.44772 1.44772 1 2 1H5.5C6.32843 1 7 1.67157 7 2.5V3Z" fill="FGCOLOR"/>
</svg>
