<svg width="8" height="8" viewBox="0 0 8 8" fill="none" xmlns="http://www.w3.org/2000/svg">
<path fill-rule="evenodd" clip-rule="evenodd" d="M5 1C6.10457 1 7 1.89543 7 3V5C7 6.10457 6.10457 7 5 7H2C1.44772 7 1 6.55228 1 6V5.5C1 5.22386 1.22386 5 1.5 5C1.74171 5 1.94371 5.17145 1.99023 5.39941L2.00977 5.60059C2.05629 5.82855 2.25829 6 2.5 6H4.5C4.77614 6 5 5.77614 5 5.5C5 5.22386 4.77614 5 4.5 5H3C1.89543 5 1 4.10457 1 3C1 1.89543 1.89543 1 3 1H5ZM4 2C3.44772 2 3 2.44772 3 3C3 3.55228 3.44772 4 4 4C4.55228 4 5 3.55228 5 3C5 2.44772 4.55228 2 4 2Z" fill="FGCOLOR"/>
</svg>
