<svg width="8" height="8" viewBox="0 0 8 8" fill="none" xmlns="http://www.w3.org/2000/svg">
<path fill-rule="evenodd" clip-rule="evenodd" d="M7 7.5C7 7.77614 6.77614 8 6.5 8H5.5C5.22386 8 5 7.77614 5 7.5C5 7.22386 4.77614 7 4.5 7H3C1.89543 7 1 6.10457 1 5V3C1 1.89543 1.89543 1 3 1H5C6.10457 1 7 1.89543 7 3V5.5C7 5.77614 6.77614 6 6.5 6C6.22386 6 6 6.22386 6 6.5C6 6.77614 6.22386 7 6.5 7C6.77614 7 7 7.22386 7 7.5ZM3 5.5C3 5.77614 3.22386 6 3.5 6C3.77614 6 4 5.77614 4 5.5C4 5.22386 4.22386 5 4.5 5C4.77614 5 5 4.77614 5 4.5V3C5 2.44772 4.55228 2 4 2C3.44772 2 3 2.44772 3 3V5.5Z" fill="FGCOLOR"/>
</svg>
