<svg width="8" height="8" viewBox="0 0 8 8" fill="none" xmlns="http://www.w3.org/2000/svg">
<path fill-rule="evenodd" clip-rule="evenodd" d="M7 4C7 4.55228 6.55228 5 6 5H5.5C5.22386 5 5 5.22386 5 5.5C5 5.77614 5.22386 6 5.5 6H6.5C6.77614 6 7 6.22386 7 6.5C7 6.77614 6.77614 7 6.5 7H5C4.44772 7 4 6.55228 4 6V5.5C4 5.22386 3.77614 5 3.5 5C3.22386 5 3 5.22386 3 5.5V6C3 6.55228 2.55228 7 2 7H0.5C0.223858 7 0 6.77614 0 6.5C0 6.22386 0.223858 6 0.5 6C0.776142 6 1 5.77614 1 5.5V3C1 1.89543 1.89543 1 3 1H5C6.10457 1 7 1.89543 7 3V4ZM3 3C3 3.55228 3.44772 4 4 4C4.55228 4 5 3.55228 5 3C5 2.44772 4.55228 2 4 2C3.44772 2 3 2.44772 3 3Z" fill="FGCOLOR"/>
</svg>
