<svg width="8" height="8" viewBox="0 0 8 8" fill="none" xmlns="http://www.w3.org/2000/svg">
<path d="M6 4C6.55228 4 7 4.44772 7 5V5.5C7 6.32843 6.32843 7 5.5 7H2C1.44772 7 1 6.55228 1 6V5.5C1 5.22386 1.22386 5 1.5 5C1.77614 5 2 5.22386 2 5.5C2 5.77614 2.22386 6 2.5 6H4.5C4.77614 6 5 5.77614 5 5.5C5 5.22386 4.77614 5 4.5 5H3.5C3.22386 5 3 4.77614 3 4.5C3 4.22386 2.77614 4 2.5 4H2C1.44772 4 1 3.55228 1 3V2.5C1 1.67157 1.67157 1 2.5 1H6C6.55228 1 7 1.44772 7 2V2.5C7 2.77614 6.77614 3 6.5 3C6.22386 3 6 2.77614 6 2.5C6 2.22386 5.77614 2 5.5 2H3.5C3.22386 2 3 2.22386 3 2.5C3 2.77614 3.22386 3 3.5 3H4.5C4.77614 3 5 3.22386 5 3.5C5 3.77614 5.22386 4 5.5 4H6Z" fill="FGCOLOR"/>
</svg>
