<svg width="8" height="8" viewBox="0 0 8 8" fill="none" xmlns="http://www.w3.org/2000/svg">
<path d="M7 1C7 1.55228 6.55228 2 6 2C5.44772 2 5 2.44772 5 3V5.5C5 6.32843 4.32843 7 3.5 7H2.5C2.22386 7 2 6.77614 2 6.5C2 6.22386 2.22386 6 2.5 6C2.77614 6 3 5.77614 3 5.5V2.5C3 2.22386 2.77614 2 2.5 2C2.22386 2 2 2.22386 2 2.5C2 2.77614 1.77614 3 1.5 3C1.22386 3 1 2.77614 1 2.5V2C1 1.44772 1.44772 1 2 1H5.5C5.77614 1 6 0.776142 6 0.5C6 0.223858 6.22386 0 6.5 0C6.77614 0 7 0.223858 7 0.5V1Z" fill="FGCOLOR"/>
</svg>
