<svg width="8" height="8" viewBox="0 0 8 8" fill="none" xmlns="http://www.w3.org/2000/svg">
<path d="M5 2.5C5 2.77614 4.77614 3 4.5 3H4C3.44772 3 3 3.44772 3 4C3 4.55228 3.44772 5 4 5H4.5C4.77614 5 5 5.22386 5 5.5C5 5.77614 5.22386 6 5.5 6H6.5C6.77614 6 7 6.22386 7 6.5C7 6.77614 6.77614 7 6.5 7H4.5C4.22386 7 4 6.77614 4 6.5C4 6.22386 3.77614 6 3.5 6H2.5C2.22386 6 2 5.77614 2 5.5C2 5.22386 1.77614 5 1.5 5C1.22386 5 1 4.77614 1 4.5V3.5C1 3.22386 1.22386 3 1.5 3C1.77614 3 2 2.77614 2 2.5C2 2.22386 2.22386 2 2.5 2H3.5C3.77614 2 4 1.77614 4 1.5C4 1.22386 4.22386 1 4.5 1H6.5C6.77614 1 7 1.22386 7 1.5C7 1.77614 6.77614 2 6.5 2H5.5C5.22386 2 5 2.22386 5 2.5Z" fill="FGCOLOR"/>
</svg>
