<svg width="8" height="8" viewBox="0 0 8 8" fill="none" xmlns="http://www.w3.org/2000/svg">
<path d="M3 2.5C3 2.77614 3.22386 3 3.5 3H4C4.55228 3 5 3.44772 5 4C5 4.55228 4.55228 5 4 5H3.5C3.22386 5 3 5.22386 3 5.5C3 5.77614 2.77614 6 2.5 6H1.5C1.22386 6 1 6.22386 1 6.5C1 6.77614 1.22386 7 1.5 7H3.5C3.77614 7 4 6.77614 4 6.5C4 6.22386 4.22386 6 4.5 6H5.5C5.77614 6 6 5.77614 6 5.5C6 5.22386 6.22386 5 6.5 5C6.77614 5 7 4.77614 7 4.5V3.5C7 3.22386 6.77614 3 6.5 3C6.22386 3 6 2.77614 6 2.5C6 2.22386 5.77614 2 5.5 2H4.5C4.22386 2 4 1.77614 4 1.5C4 1.22386 3.77614 1 3.5 1H1.5C1.22386 1 1 1.22386 1 1.5C1 1.77614 1.22386 2 1.5 2H2.5C2.77614 2 3 2.22386 3 2.5Z" fill="FGCOLOR"/>
</svg>
