<svg width="8" height="8" viewBox="0 0 8 8" fill="none" xmlns="http://www.w3.org/2000/svg">
<path d="M5 1.5C5 1.77614 5.22386 2 5.5 2C5.77614 2 6 2.22386 6 2.5C6 2.77614 6.22386 3 6.5 3C6.77614 3 7 3.22386 7 3.5V4.5C7 4.77614 6.77614 5 6.5 5C6.22386 5 6 4.77614 6 4.5C6 4.22386 5.77614 4 5.5 4C5.22386 4 5 4.22386 5 4.5V6.5C5 7.32843 4.32843 8 3.5 8H2.5C2.22386 8 2 7.77614 2 7.5C2 7.22386 2.22386 7 2.5 7C2.77614 7 3 6.77614 3 6.5V4.5C3 4.22386 2.77614 4 2.5 4C2.22386 4 2 4.22386 2 4.5C2 4.77614 1.77614 5 1.5 5C1.22386 5 1 4.77614 1 4.5V3.5C1 3.22386 1.22386 3 1.5 3C1.77614 3 2 2.77614 2 2.5C2 2.22386 2.22386 2 2.5 2C2.77614 2 3 1.77614 3 1.5C3 1.22386 3.22386 1 3.5 1H4.5C4.77614 1 5 1.22386 5 1.5Z" fill="FGCOLOR"/>
</svg>
