<svg width="8" height="8" viewBox="0 0 8 8" fill="none" xmlns="http://www.w3.org/2000/svg">
<path d="M1.5 5C1.77614 5 2 5.22386 2 5.5C2 5.77614 2.22386 6 2.5 6C2.77614 6 3 6.22386 3 6.5C3 6.77614 3.22386 7 3.5 7H4.5C4.77614 7 5 6.77614 5 6.5C5 6.22386 4.77614 6 4.5 6C4.22386 6 4 5.77614 4 5.5C4 5.22386 4.22386 5 4.5 5H6.5C7.32843 5 8 4.32843 8 3.5V2.5C8 2.22386 7.77614 2 7.5 2C7.22386 2 7 2.22386 7 2.5C7 2.77614 6.77614 3 6.5 3L4.5 3C4.22386 3 4 2.77614 4 2.5C4 2.22386 4.22386 2 4.5 2C4.77614 2 5 1.77614 5 1.5C5 1.22386 4.77614 1 4.5 1L3.5 1C3.22386 1 3 1.22386 3 1.5C3 1.77614 2.77614 2 2.5 2C2.22386 2 2 2.22386 2 2.5C2 2.77614 1.77614 3 1.5 3C1.22386 3 1 3.22386 1 3.5L1 4.5C1 4.77614 1.22386 5 1.5 5Z" fill="FGCOLOR"/>
</svg>
