<svg width="8" height="8" viewBox="0 0 8 8" fill="none" xmlns="http://www.w3.org/2000/svg">
<path d="M6 2.5C6 2.77614 5.77614 3 5.5 3C5.22386 3 5 3.22386 5 3.5C5 3.77614 5.22386 4 5.5 4H6.5C6.77614 4 7 4.22386 7 4.5C7 4.77614 6.77614 5 6.5 5H6C5.44772 5 5 5.44772 5 6C5 6.55228 4.55228 7 4 7H2.5C2.22386 7 2 6.77614 2 6.5C2 6.22386 2.22386 6 2.5 6C2.77614 6 3 5.77614 3 5.5C3 5.22386 2.77614 5 2.5 5H1.5C1.22386 5 1 4.77614 1 4.5C1 4.22386 1.22386 4 1.5 4H2C2.55228 4 3 3.55228 3 3C3 2.44772 3.44772 2 4 2H5.5C5.77614 2 6 2.22386 6 2.5Z" fill="FGCOLOR"/>
</svg>
