<svg width="8" height="8" viewBox="0 0 8 8" fill="none" xmlns="http://www.w3.org/2000/svg">
<path d="M5.5 2C5.77614 2 6 2.22386 6 2.5C6 2.74171 5.82855 2.94371 5.60059 2.99023L5.39941 3.00977C5.17145 3.05629 5 3.25829 5 3.5L5.00977 3.60059C5.05644 3.82836 5.25843 4 5.5 4H6.5C6.77614 4 7 4.22386 7 4.5C6.99978 4.77595 6.77601 5 6.5 5H5.5C5.39661 5 5.30043 5.0312 5.2207 5.08496C5.11403 5.15696 5.0363 5.26887 5.00977 5.39941C5.00314 5.43189 5 5.46557 5 5.5C5 5.74171 5.17145 5.94371 5.39941 5.99023L5.60059 6.00977C5.82855 6.05629 6 6.25829 6 6.5C6 6.77614 5.77614 7 5.5 7C5.25829 7 5.05629 6.82855 5.00977 6.60059L4.99023 6.39941C4.94371 6.17145 4.74171 6 4.5 6H3.5C3.25829 6 3.05629 6.17145 3.00977 6.39941L2.99023 6.60059C2.94371 6.82855 2.74171 7 2.5 7C2.22386 7 2 6.77614 2 6.5C2 6.25829 2.17145 6.05629 2.39941 6.00977L2.60059 5.99023C2.82855 5.94371 3 5.74171 3 5.5C3 5.46557 2.99686 5.43189 2.99023 5.39941C2.9637 5.26887 2.88597 5.15696 2.7793 5.08496C2.69957 5.0312 2.60339 5 2.5 5H1.5C1.22399 5 1.00022 4.77595 1 4.5C1 4.22386 1.22386 4 1.5 4H2.5C2.74158 4 2.94356 3.82836 2.99023 3.60059L3 3.5C3 3.25829 2.82855 3.05629 2.60059 3.00977L2.39941 2.99023C2.17145 2.94371 2 2.74171 2 2.5C2 2.22386 2.22386 2 2.5 2C2.74171 2 2.94371 2.17145 2.99023 2.39941L3.00977 2.60059C3.05629 2.82855 3.25829 3 3.5 3H4.5C4.74171 3 4.94371 2.82855 4.99023 2.60059L5.00977 2.39941C5.05629 2.17145 5.25829 2 5.5 2Z" fill="FGCOLOR"/>
</svg>
