<svg width="8" height="8" viewBox="0 0 8 8" fill="none" xmlns="http://www.w3.org/2000/svg">
<path d="M7 2.5C7 2.77614 6.77614 3 6.5 3C6.22386 3 6 3.22386 6 3.5C6 3.77614 5.77614 4 5.5 4C5.22386 4 5 4.22386 5 4.5C5 4.77614 4.77614 5 4.5 5C4.22386 5 4 5.22386 4 5.5C4 5.77614 3.77614 6 3.5 6C3.22386 6 3 6.22386 3 6.5C3 6.77614 2.77614 7 2.5 7H1.5C1.22386 7 1 6.77614 1 6.5C1 6.22386 1.22386 6 1.5 6C1.77614 6 2 5.77614 2 5.5C2 5.22386 2.22386 5 2.5 5C2.77614 5 3 4.77614 3 4.5C3 4.22386 3.22386 4 3.5 4C3.77614 4 4 3.77614 4 3.5C4 3.22386 4.22386 3 4.5 3C4.77614 3 5 2.77614 5 2.5C5 2.22386 5.22386 2 5.5 2C5.77614 2 6 1.77614 6 1.5C6 1.22386 6.22386 1 6.5 1C6.77614 1 7 1.22386 7 1.5V2.5Z" fill="FGCOLOR"/>
</svg>
