<svg width="8" height="8" viewBox="0 0 8 8" fill="none" xmlns="http://www.w3.org/2000/svg">
<path d="M6.5 1C6.77614 1 7 1.22386 7 1.5V2.5C7 2.74171 6.82855 2.94371 6.60059 2.99023L6.39941 3.00977C6.20392 3.04966 6.04966 3.20392 6.00977 3.39941L5.99023 3.60059C5.95034 3.79608 5.79608 3.95034 5.60059 3.99023L5.39941 4.00977C5.20392 4.04966 5.04966 4.20392 5.00977 4.39941L4.99023 4.60059C4.95034 4.79608 4.79608 4.95034 4.60059 4.99023L4.39941 5.00977C4.20392 5.04966 4.04966 5.20392 4.00977 5.39941L3.99023 5.60059C3.95034 5.79608 3.79608 5.95034 3.60059 5.99023L3.39941 6.00977C3.20392 6.04966 3.04966 6.20392 3.00977 6.39941L2.99023 6.60059C2.94371 6.82855 2.74171 7 2.5 7H1.5C1.22386 7 1 6.77614 1 6.5C1 6.25829 1.17145 6.05629 1.39941 6.00977L1.60059 5.99023C1.79608 5.95034 1.95034 5.79608 1.99023 5.60059L2.00977 5.39941C2.04966 5.20392 2.20392 5.04966 2.39941 5.00977L2.60059 4.99023C2.79608 4.95034 2.95034 4.79608 2.99023 4.60059L3.00977 4.39941C3.04966 4.20392 3.20392 4.04966 3.39941 4.00977L3.60059 3.99023C3.79608 3.95034 3.95034 3.79608 3.99023 3.60059L4.00977 3.39941C4.04966 3.20392 4.20392 3.04966 4.39941 3.00977L4.60059 2.99023C4.79608 2.95034 4.95034 2.79608 4.99023 2.60059L5.00977 2.39941C5.04966 2.20392 5.20392 2.04966 5.39941 2.00977L5.60059 1.99023C5.79608 1.95034 5.95034 1.79608 5.99023 1.60059L6.00977 1.39941C6.05629 1.17145 6.25829 1 6.5 1Z" fill="FGCOLOR"/>
<path d="M6 5C6.55228 5 7 5.44772 7 6C7 6.55228 6.55228 7 6 7C5.44772 7 5 6.55228 5 6C5 5.44772 5.44772 5 6 5Z" fill="FGCOLOR"/>
<path d="M2 1C2.55228 1 3 1.44772 3 2C3 2.55228 2.55228 3 2 3C1.44772 3 1 2.55228 1 2C1 1.44772 1.44772 1 2 1Z" fill="FGCOLOR"/>
</svg>
