<svg width="8" height="8" viewBox="0 0 8 8" fill="none" xmlns="http://www.w3.org/2000/svg">
<path d="M5 6.5C5 6.77614 4.77614 7 4.5 7H3.5C3.22386 7 3 6.77614 3 6.5C3 6.22386 2.77614 6 2.5 6C2.22386 6 2 5.77614 2 5.5C2 5.22386 1.77614 5 1.5 5C1.22386 5 1 4.77614 1 4.5V2.5C1 1.67157 1.67157 1 2.5 1H3.5C3.77614 1 4 1.22386 4 1.5C4 1.77614 3.77614 2 3.5 2C3.22386 2 3 2.22386 3 2.5V4C3 4.55228 3.44772 5 4 5C4.55228 5 5 4.55228 5 4V2.5C5 1.67157 5.67157 1 6.5 1H7.5C7.77614 1 8 1.22386 8 1.5C8 1.77614 7.77614 2 7.5 2C7.22386 2 7 2.22386 7 2.5V4.5C7 4.77614 6.77614 5 6.5 5C6.22386 5 6 5.22386 6 5.5C6 5.77614 5.77614 6 5.5 6C5.22386 6 5 6.22386 5 6.5Z" fill="FGCOLOR"/>
</svg>
