<svg width="8" height="8" viewBox="0 0 8 8" fill="none" xmlns="http://www.w3.org/2000/svg">
<path d="M4 1.5C4 1.77614 3.77614 2 3.5 2C3.22386 2 3 2.22386 3 2.5V3.5C3 3.77614 3.22386 4 3.5 4C3.77614 4 4 3.77614 4 3.5C4 3.22386 4.22386 3 4.5 3C4.77614 3 5 3.22386 5 3.5C5 3.77614 5.22386 4 5.5 4C5.77614 4 6 3.77614 6 3.5V2C6 1.44772 6.44772 1 7 1C7.55228 1 8 1.44772 8 2V6C8 6.55228 7.55228 7 7 7H6.5C6.22386 7 6 6.77614 6 6.5C6 6.22386 5.77614 6 5.5 6C5.22386 6 5 5.77614 5 5.5C5 5.22386 4.77614 5 4.5 5C4.22386 5 4 5.22386 4 5.5C4 5.77614 3.77614 6 3.5 6C3.22386 6 3 6.22386 3 6.5C3 6.77614 2.77614 7 2.5 7H2C1.44772 7 1 6.55228 1 6V2.5C1 1.67157 1.67157 1 2.5 1H3.5C3.77614 1 4 1.22386 4 1.5Z" fill="FGCOLOR"/>
</svg>
