<svg width="8" height="8" viewBox="0 0 8 8" fill="none" xmlns="http://www.w3.org/2000/svg">
<path d="M7 1C7 1.55228 6.55228 2 6 2H4C3.44772 2 3 2.44772 3 3V3.5C3 3.77614 3.22386 4 3.5 4C3.77614 4 4 3.77614 4 3.5C4 3.22386 4.22386 3 4.5 3C4.77614 3 5 3.22386 5 3.5V4C5 4.55228 4.55228 5 4 5C3.44772 5 3 5.44772 3 6C3 6.55228 2.55228 7 2 7H0.5C0.223858 7 0 6.77614 0 6.5C0 6.22386 0.223858 6 0.5 6C0.776142 6 1 5.77614 1 5.5V3C1 1.89543 1.89543 1 3 1H5.5C5.77614 1 6 0.776142 6 0.5C6 0.223858 6.22386 0 6.5 0C6.77614 0 7 0.223858 7 0.5V1Z" fill="FGCOLOR"/>
</svg>
