<svg width="8" height="8" viewBox="0 0 8 8" fill="none" xmlns="http://www.w3.org/2000/svg">
<path d="M7 6C7 6.55228 6.55228 7 6 7H5.5C5.22386 7 5 6.77614 5 6.5C5 6.22386 4.77614 6 4.5 6H3.5C3.22386 6 3 6.22386 3 6.5C3 6.77614 2.77614 7 2.5 7H2C1.44772 7 1 6.55228 1 6C1 5.44772 1.44772 5 2 5H2.5C2.77614 5 3 4.77614 3 4.5C3 4.22386 2.77614 4 2.5 4H2C1.44772 4 1 3.55228 1 3V2.5C1 1.67157 1.67157 1 2.5 1H3.5C3.77614 1 4 1.22386 4 1.5C4 1.77614 3.77614 2 3.5 2C3.22386 2 3 2.22386 3 2.5C3 2.77614 3.22386 3 3.5 3H4C4.55228 3 5 2.55228 5 2C5 1.44772 5.44772 1 6 1H7.5C7.77614 1 8 1.22386 8 1.5C8 1.77614 7.77614 2 7.5 2C7.22386 2 7 2.22386 7 2.5V3C7 3.55228 6.55228 4 6 4H5.5C5.22386 4 5 4.22386 5 4.5C5 4.77614 5.22386 5 5.5 5H6C6.55228 5 7 5.44772 7 6Z" fill="FGCOLOR"/>
</svg>
