<svg width="8" height="8" viewBox="0 0 8 8" fill="none" xmlns="http://www.w3.org/2000/svg">
<path d="M4 1.5C4 1.77614 3.77614 2 3.5 2C3.22386 2 3 2.22386 3 2.5V3C3 3.55228 3.44772 4 4 4C4.55228 4 5 3.55228 5 3V2.5C5 1.67157 5.67157 1 6.5 1H7.5C7.77614 1 8 1.22386 8 1.5C8 1.77614 7.77614 2 7.5 2C7.22386 2 7 2.22386 7 2.5V5C7 6.10457 6.10457 7 5 7H2.5C2.22386 7 2 7.22386 2 7.5C2 7.77614 1.77614 8 1.5 8C1.22386 8 1 7.77614 1 7.5V7C1 6.44772 1.44772 6 2 6H4.5C4.77614 6 5 5.77614 5 5.5C5 5.22386 4.77614 5 4.5 5H3C1.89543 5 1 4.10457 1 3V2.5C1 1.67157 1.67157 1 2.5 1H3.5C3.77614 1 4 1.22386 4 1.5Z" fill="FGCOLOR"/>
</svg>
