<svg width="8" height="8" viewBox="0 0 8 8" fill="none" xmlns="http://www.w3.org/2000/svg">
<path d="M2 5.5C2 5.77614 2.22386 6 2.5 6C2.77614 6 3 6.22386 3 6.5C3 6.77614 2.77614 7 2.5 7H2C1.44772 7 1 6.55228 1 6V0.5C1 0.223858 1.22386 0 1.5 0C1.77614 0 2 0.223858 2 0.5V5.5Z" fill="FGCOLOR"/>
<path d="M4 1.5C4 1.77614 4.22386 2 4.5 2C4.77614 2 5 2.22386 5 2.5V6.5C5 6.77614 4.77614 7 4.5 7C4.22386 7 4 6.77614 4 6.5V3.5C4 3.22386 3.77614 3 3.5 3C3.22386 3 3 2.77614 3 2.5V0.5C3 0.223858 3.22386 0 3.5 0C3.77614 0 4 0.223858 4 0.5V1.5Z" fill="FGCOLOR"/>
<path d="M8 2.5C8 2.77614 7.77614 3 7.5 3C7.22386 3 7 3.22386 7 3.5C7 3.77614 7.22386 4 7.5 4C7.77614 4 8 4.22386 8 4.5V6C8 6.55228 7.55228 7 7 7H6.5C6.22386 7 6 6.77614 6 6.5C6 6.22386 6.22386 6 6.5 6C6.77614 6 7 5.77614 7 5.5C7 5.22386 6.77614 5 6.5 5C6.22386 5 6 4.77614 6 4.5V3C6 2.44772 6.44772 2 7 2H7.5C7.77614 2 8 2.22386 8 2.5Z" fill="FGCOLOR"/>
</svg>
