<svg width="8" height="8" viewBox="0 0 8 8" fill="none" xmlns="http://www.w3.org/2000/svg">
<path d="M3 2.5C3 2.77614 2.77614 3 2.5 3H1.5C1.22386 3 1 2.77614 1 2.5C1 2.22386 1.22386 2 1.5 2C1.77614 2 2 1.77614 2 1.5V1C2 0.447715 2.44772 0 3 0C3.55228 0 4 0.447715 4 1V1.5C4 1.77614 3.77614 2 3.5 2C3.22386 2 3 2.22386 3 2.5Z" fill="FGCOLOR"/>
<path d="M6 2.5C6 2.77614 5.77614 3 5.5 3H4.5C4.22386 3 4 2.77614 4 2.5C4 2.22386 4.22386 2 4.5 2C4.77614 2 5 1.77614 5 1.5V1C5 0.447715 5.44772 0 6 0C6.55228 0 7 0.447715 7 1V1.5C7 1.77614 6.77614 2 6.5 2C6.22386 2 6 2.22386 6 2.5Z" fill="FGCOLOR"/>
</svg>
