<svg width="8" height="8" viewBox="0 0 8 8" fill="none" xmlns="http://www.w3.org/2000/svg">
<path d="M5 6C5 6.55228 4.55228 7 4 7C3.44772 7 3 6.55228 3 6C3 5.44772 3.44772 5 4 5C4.55228 5 5 5.44772 5 6Z" fill="FGCOLOR"/>
<path d="M7 2.5C7 2.77614 6.77614 3 6.5 3C6.22386 3 6 3.22386 6 3.5C6 3.77614 5.77614 4 5.5 4H3.5C3.22386 4 3 3.77614 3 3.5C3 3.22386 3.22386 3 3.5 3H4C4.55228 3 5 2.55228 5 2C5 1.44772 4.55228 1 4 1H3.5C3.22386 1 3 1.22386 3 1.5C3 1.77614 2.77614 2 2.5 2H2C1.44772 2 1 1.55228 1 1C1 0.447715 1.44772 0 2 0H5.5C6.32843 0 7 0.671573 7 1.5V2.5Z" fill="FGCOLOR"/>
</svg>
