<svg width="8" height="8" viewBox="0 0 8 8" fill="none" xmlns="http://www.w3.org/2000/svg">
<path d="M6 1C6.55228 1 7 1.44772 7 2V2.5C7 2.77614 6.77614 3 6.5 3C6.22386 3 6 2.77614 6 2.5C6 2.22386 5.77614 2 5.5 2H4.5C3.67157 2 3 2.67157 3 3.5V4.5C3 5.32843 3.67157 6 4.5 6H5.5C5.77614 6 6 5.77614 6 5.5C6 5.22386 5.77614 5 5.5 5C5.22386 5 5 4.77614 5 4.5C5 4.22386 5.22386 4 5.5 4H6C6.55228 4 7 4.44772 7 5V5.5C7 6.32843 6.32843 7 5.5 7H3C1.89543 7 1 6.10457 1 5V3C1 1.89543 1.89543 1 3 1H6Z" fill="FGCOLOR"/>
</svg>
