<svg width="8" height="8" viewBox="0 0 8 8" fill="none" xmlns="http://www.w3.org/2000/svg">
<path d="M4 5C4.55228 5 5 5.44772 5 6V6.5C5 6.74171 4.82855 6.94371 4.60059 6.99023L4.39941 7.00977C4.20392 7.04966 4.04966 7.20392 4.00977 7.39941L3.99023 7.60059C3.94371 7.82855 3.74171 8 3.5 8H2.5C2.22386 8 2 7.77614 2 7.5C2 7.25829 2.17145 7.05629 2.39941 7.00977L2.60059 6.99023C2.82855 6.94371 3 6.74171 3 6.5V6C3 5.44772 3.44772 5 4 5Z" fill="FGCOLOR"/>
<path d="M4 2C4.55228 2 5 2.44772 5 3C5 3.55228 4.55228 4 4 4C3.44772 4 3 3.55228 3 3C3 2.44772 3.44772 2 4 2Z" fill="FGCOLOR"/>
</svg>
