<svg width="8" height="8" viewBox="0 0 8 8" fill="none" xmlns="http://www.w3.org/2000/svg">
<path fill-rule="evenodd" clip-rule="evenodd" d="M5.5 1C6.32843 1 7 1.67157 7 2.5V3.5C7 4.32843 6.32843 5 5.5 5H4C3.44772 5 3 4.55228 3 4V4.5C3 5.32843 3.67157 6 4.5 6H5.5C5.74171 6 5.94371 5.82855 5.99023 5.60059L6.00977 5.39941C6.05629 5.17145 6.25829 5 6.5 5C6.77614 5 7 5.22386 7 5.5V6C7 6.55228 6.55228 7 6 7H3C1.89543 7 1 6.10457 1 5V3C1 1.89543 1.89543 1 3 1H5.5ZM4 2C3.44772 2 3 2.44772 3 3V3.5C3 3.22386 3.22386 3 3.5 3C3.74171 3 3.94371 3.17145 3.99023 3.39941L4.00977 3.60059C4.05629 3.82855 4.25829 4 4.5 4C4.77614 4 5 3.77614 5 3.5V3C5 2.44772 4.55228 2 4 2Z" fill="FGCOLOR"/>
</svg>
