<svg xmlns="http://www.w3.org/2000/svg" width="512" height="512" viewBox="0 0 512 512" fill="none"><metadata><rdf:RDF xmlns:rdf="http://www.w3.org/1999/02/22-rdf-syntax-ns#" xmlns:dc="http://purl.org/dc/elements/1.1/"><rdf:Description><dc:creator>RealFaviconGenerator</dc:creator><dc:source>https://realfavicongenerator.net</dc:source></rdf:Description></rdf:RDF></metadata><path d="M248 307.282C259.425 307.282 270.382 311.821 278.46 319.899C286.539 327.978 291.077 338.934 291.077 350.359C291.077 361.784 286.538 372.741 278.46 380.819C270.382 388.898 259.425 393.436 248 393.436C236.575 393.436 225.619 388.898 217.54 380.819C209.714 372.993 205.211 362.466 204.937 351.429L204.936 351.397V351.364L204.924 350.426L204.923 350.393V350.359C204.923 338.934 209.462 327.978 217.54 319.899C225.619 311.821 236.576 307.282 248 307.282ZM404.308 204.718H398.975C378.448 204.718 358.121 200.675 339.157 192.82C320.194 184.965 302.962 173.452 288.447 158.937C273.933 144.423 262.421 127.191 254.566 108.227C254.143 107.207 253.733 106.183 253.333 105.155V194.143C282.38 195.135 310.615 204.209 334.839 220.395C360.543 237.57 380.579 261.981 392.409 290.543C404.24 319.104 407.335 350.533 401.304 380.853C395.273 411.174 380.387 439.026 358.526 460.886C336.666 482.746 308.815 497.632 278.494 503.663C248.174 509.694 216.745 506.599 188.184 494.768C159.622 482.938 135.21 462.903 118.035 437.199C100.86 411.494 91.6925 381.274 91.6925 350.359V345.026H140.103V350.359C140.103 371.699 146.43 392.561 158.286 410.304C170.142 428.048 186.994 441.877 206.709 450.044C226.425 458.21 248.12 460.347 269.05 456.183C289.98 452.02 309.205 441.744 324.295 426.655C339.385 411.565 349.661 392.339 353.824 371.409C357.987 350.479 355.851 328.784 347.685 309.069C339.518 289.353 325.689 272.501 307.945 260.645C290.202 248.789 269.34 242.462 248 242.462C242.343 242.462 236.741 241.347 231.515 239.182C226.289 237.018 221.54 233.845 217.54 229.845C213.54 225.845 210.367 221.096 208.202 215.87C206.038 210.644 204.923 205.042 204.923 199.384V48.4099C204.923 36.9854 209.462 26.0283 217.54 17.9499C225.619 9.87154 236.576 5.33368 248 5.33368C259.425 5.33371 270.382 9.8715 278.46 17.9499C286.539 26.0283 291.077 36.9854 291.077 48.4099C291.077 62.5791 293.868 76.6102 299.29 89.7009C304.713 102.792 312.66 114.687 322.679 124.706C332.698 134.725 344.593 142.672 357.684 148.094C370.774 153.517 384.805 156.308 398.975 156.308H404.308V204.718Z" fill="black" stroke="white" stroke-width="10.6667"></path></svg>