<svg xmlns="http://www.w3.org/2000/svg" version="1.1" xmlns:xlink="http://www.w3.org/1999/xlink" width="1000" height="1000"><metadata><rdf:RDF xmlns:rdf="http://www.w3.org/1999/02/22-rdf-syntax-ns#" xmlns:dc="http://purl.org/dc/elements/1.1/"><rdf:Description><dc:creator>RealFaviconGenerator</dc:creator><dc:source>https://realfavicongenerator.net</dc:source></rdf:Description></rdf:RDF></metadata><style>
    #light-icon {
      display: inline;
    }
    #dark-icon {
      display: none;
    }

    @media (prefers-color-scheme: dark) {
      #light-icon {
        display: none;
      }
      #dark-icon {
        display: inline;
      }
    }
  </style><g id="light-icon"><svg xmlns="http://www.w3.org/2000/svg" version="1.1" xmlns:xlink="http://www.w3.org/1999/xlink" width="1000" height="1000"><g><g transform="matrix(1.953125,0,0,1.953125,0,0)"><svg xmlns="http://www.w3.org/2000/svg" width="512" height="512" viewBox="0 0 512 512" fill="none"><path d="M248 196.923C279.158 196.923 309.616 206.164 335.523 223.474C361.43 240.785 381.623 265.388 393.546 294.174C405.47 322.961 408.59 354.636 402.511 385.196C396.432 415.755 381.429 443.827 359.397 465.859C337.365 487.891 309.293 502.894 278.734 508.973C248.174 515.051 216.499 511.932 187.712 500.008C158.926 488.084 134.323 467.892 117.012 441.985C99.7016 416.078 90.4614 385.62 90.4614 354.462H129.846C129.846 377.831 136.775 400.675 149.758 420.105C162.741 439.535 181.195 454.679 202.785 463.622C224.374 472.565 248.131 474.904 271.051 470.345C293.97 465.786 315.024 454.534 331.548 438.01C348.072 421.486 359.324 400.432 363.883 377.513C368.442 354.593 366.103 330.836 357.16 309.246C348.217 287.657 333.073 269.203 313.643 256.22C294.213 243.237 271.369 236.308 248 236.308C242.828 236.308 237.706 235.289 232.928 233.309C228.15 231.33 223.808 228.43 220.151 224.773C216.494 221.115 213.593 216.774 211.614 211.996C209.635 207.217 208.615 202.095 208.615 196.923V39.3847C208.615 28.9392 212.765 18.9215 220.151 11.5354C227.537 4.14934 237.555 1.12063e-06 248 0C258.445 -3.2484e-07 268.463 4.14934 275.849 11.5354C283.235 18.9214 287.385 28.9392 287.385 39.3847C287.385 54.9008 290.441 70.265 296.379 84.6001C302.316 98.9352 311.019 111.961 321.991 122.932C332.962 133.904 345.988 142.607 360.323 148.545C374.658 154.483 390.022 157.539 405.539 157.539V196.923C384.85 196.923 364.364 192.848 345.251 184.931C326.138 177.014 308.77 165.41 294.142 150.782C279.513 136.153 267.909 118.786 259.992 99.6724C252.075 80.5589 248 60.0729 248 39.3847V196.923Z" fill="black"></path><path d="M248 315.077C258.445 315.077 268.463 319.227 275.849 326.613C283.235 333.999 287.385 344.016 287.385 354.462C287.385 364.907 283.235 374.925 275.849 382.311C268.463 389.697 258.445 393.847 248 393.847C237.555 393.847 227.537 389.697 220.151 382.311C212.996 375.156 208.878 365.531 208.628 355.44L208.615 354.462C208.615 344.016 212.765 333.999 220.151 326.613C227.537 319.227 237.555 315.077 248 315.077Z" fill="black"></path></svg></g></g></svg></g><g id="dark-icon"><svg xmlns="http://www.w3.org/2000/svg" version="1.1" xmlns:xlink="http://www.w3.org/1999/xlink" width="1000" height="1000"><g><g transform="matrix(1.953125,0,0,1.953125,0,0)"><svg xmlns="http://www.w3.org/2000/svg" width="512" height="512" viewBox="0 0 512 512" fill="none"><path d="M248 196.923C279.158 196.923 309.616 206.164 335.523 223.474C361.43 240.785 381.623 265.388 393.546 294.174C405.47 322.961 408.59 354.636 402.511 385.196C396.432 415.755 381.429 443.827 359.397 465.859C337.365 487.891 309.293 502.894 278.734 508.973C248.174 515.051 216.499 511.932 187.712 500.008C158.926 488.084 134.323 467.892 117.012 441.985C99.7016 416.078 90.4614 385.62 90.4614 354.462H129.846C129.846 377.831 136.775 400.675 149.758 420.105C162.741 439.535 181.195 454.679 202.785 463.622C224.374 472.565 248.131 474.904 271.051 470.345C293.97 465.786 315.024 454.534 331.548 438.01C348.072 421.486 359.324 400.432 363.883 377.513C368.442 354.593 366.103 330.836 357.16 309.246C348.217 287.657 333.073 269.203 313.643 256.22C294.213 243.237 271.369 236.308 248 236.308C242.828 236.308 237.706 235.289 232.928 233.309C228.15 231.33 223.808 228.43 220.151 224.773C216.494 221.115 213.593 216.774 211.614 211.996C209.635 207.217 208.615 202.095 208.615 196.923V39.3847C208.615 28.9392 212.765 18.9215 220.151 11.5354C227.537 4.14934 237.555 1.12063e-06 248 0C258.445 -3.2484e-07 268.463 4.14934 275.849 11.5354C283.235 18.9214 287.385 28.9392 287.385 39.3847C287.385 54.9008 290.441 70.265 296.379 84.6001C302.316 98.9352 311.019 111.961 321.991 122.932C332.962 133.904 345.988 142.607 360.323 148.545C374.658 154.483 390.022 157.539 405.539 157.539V196.923C384.85 196.923 364.364 192.848 345.251 184.931C326.138 177.014 308.77 165.41 294.142 150.782C279.513 136.153 267.909 118.786 259.992 99.6724C252.075 80.5589 248 60.0729 248 39.3847V196.923Z" fill="white"></path><path d="M248 315.077C258.445 315.077 268.463 319.227 275.849 326.613C283.235 333.999 287.385 344.016 287.385 354.462C287.385 364.907 283.235 374.925 275.849 382.311C268.463 389.697 258.445 393.847 248 393.847C237.555 393.847 227.537 389.697 220.151 382.311C212.996 375.156 208.878 365.531 208.628 355.44L208.615 354.462C208.615 344.016 212.765 333.999 220.151 326.613C227.537 319.227 237.555 315.077 248 315.077Z" fill="white"></path></svg></g></g></svg></g></svg>